<?xml version="1.0" encoding="UTF-8" standalone="no"?>
<!-- Created with Inkscape (http://www.inkscape.org/) -->

<svg
   xmlns:dc="http://purl.org/dc/elements/1.1/"
   xmlns:cc="http://creativecommons.org/ns#"
   xmlns:rdf="http://www.w3.org/1999/02/22-rdf-syntax-ns#"
   xmlns:svg="http://www.w3.org/2000/svg"
   xmlns="http://www.w3.org/2000/svg"
   xmlns:sodipodi="http://sodipodi.sourceforge.net/DTD/sodipodi-0.dtd"
   xmlns:inkscape="http://www.inkscape.org/namespaces/inkscape"
   width="100"
   height="100"
   viewBox="0 0 100 100"
   id="svg6644"
   version="1.1"
   inkscape:version="0.91 r13725"
   sodipodi:docname="contour.svg">
  <defs
     id="defs6646" />
  <sodipodi:namedview
     id="base"
     pagecolor="#ffffff"
     bordercolor="#666666"
     borderopacity="1.0"
     inkscape:pageopacity="0.0"
     inkscape:pageshadow="2"
     inkscape:zoom="7.9195959"
     inkscape:cx="52.574714"
     inkscape:cy="45.685155"
     inkscape:document-units="px"
     inkscape:current-layer="pocket"
     showgrid="true"
     units="px"
     inkscape:window-width="1680"
     inkscape:window-height="987"
     inkscape:window-x="-8"
     inkscape:window-y="-8"
     inkscape:window-maximized="1"
     inkscape:snap-nodes="true"
     inkscape:snap-bbox="true"
     inkscape:bbox-paths="true"
     inkscape:bbox-nodes="true"
     inkscape:snap-bbox-edge-midpoints="true"
     inkscape:snap-bbox-midpoints="true"
     inkscape:object-paths="true"
     inkscape:snap-intersection-paths="true"
     inkscape:object-nodes="true"
     inkscape:snap-smooth-nodes="true"
     inkscape:snap-midpoints="true"
     inkscape:snap-object-midpoints="true"
     inkscape:snap-center="true"
     inkscape:snap-text-baseline="true"
     inkscape:snap-page="false">
    <inkscape:grid
       type="xygrid"
       id="grid7192"
       empspacing="5" />
  </sodipodi:namedview>
  <metadata
     id="metadata6649">
    <rdf:RDF>
      <cc:Work
         rdf:about="">
        <dc:format>image/svg+xml</dc:format>
        <dc:type
           rdf:resource="http://purl.org/dc/dcmitype/StillImage" />
        <dc:title></dc:title>
      </cc:Work>
    </rdf:RDF>
  </metadata>
  <g
     inkscape:label="Ebene 1"
     inkscape:groupmode="layer"
     id="pocket">
    <path
       id="drill"
       style="fill:none;fill-rule:evenodd;stroke:#000000;stroke-width:0.5;stroke-linecap:butt;stroke-linejoin:miter;stroke-miterlimit:4;stroke-dasharray:none;stroke-opacity:1"
       d="m 15,75 20,0 M 25,65 25,85 m 5,-10 a 5,5 0 0 1 -5,5 5,5 0 0 1 -5,-5 5,5 0 0 1 5,-5 5,5 0 0 1 5,5 z"
       inkscape:connector-curvature="0"
       class="svg_path" />
    <path
       style="fill:none;fill-rule:evenodd;stroke:#000000;stroke-width:0.5;stroke-linecap:butt;stroke-linejoin:miter;stroke-miterlimit:4;stroke-dasharray:1, 1;stroke-dashoffset:0;stroke-opacity:1"
       d="m 75,25 -50,0 0,50 50,0 z"
       id="path4144"
       inkscape:connector-curvature="0"
       class="svg_path"
       sodipodi:nodetypes="ccccc" />
    <text
       xml:space="preserve"
       style="font-style:normal;font-weight:normal;font-size:7.5px;line-height:125%;font-family:sans-serif;letter-spacing:0px;word-spacing:0px;fill:#000000;fill-opacity:1;stroke:none;stroke-width:1px;stroke-linecap:butt;stroke-linejoin:miter;stroke-opacity:1"
       x="50.615967"
       y="83.893799"
       id="dist_bottom"
       sodipodi:linespacing="125%"
       class="svg_text"><tspan
         sodipodi:role="line"
         id="tspan4817"
         x="50.615967"
         y="83.893799"
         style="font-size:7.5px">0</tspan></text>
    <text
       xml:space="preserve"
       style="font-style:normal;font-weight:normal;font-size:7.5px;line-height:125%;font-family:sans-serif;text-align:end;letter-spacing:0px;word-spacing:0px;text-anchor:end;fill:#000000;fill-opacity:1;stroke:none;stroke-width:1px;stroke-linecap:butt;stroke-linejoin:miter;stroke-opacity:1"
       x="50.615967"
       y="21.566406"
       id="dist_top"
       sodipodi:linespacing="125%"
       class="svg_text"><tspan
         sodipodi:role="line"
         id="tspan4817-3"
         x="50.615967"
         y="21.566406"
         style="font-size:7.5px;text-align:start;text-anchor:start">0</tspan></text>
    <text
       xml:space="preserve"
       style="font-style:normal;font-weight:normal;font-size:7.5px;line-height:125%;font-family:sans-serif;text-align:end;letter-spacing:0px;word-spacing:0px;text-anchor:end;fill:#000000;fill-opacity:1;stroke:none;stroke-width:1px;stroke-linecap:butt;stroke-linejoin:miter;stroke-opacity:1"
       x="22.391357"
       y="48.893799"
       id="dist_left"
       sodipodi:linespacing="125%"
       class="svg_text"><tspan
         sodipodi:role="line"
         id="tspan4817-3-3"
         x="22.391357"
         y="48.893799"
         style="font-size:7.5px;text-align:end;text-anchor:end">0</tspan></text>
    <text
       xml:space="preserve"
       style="font-style:normal;font-weight:normal;font-size:7.5px;line-height:125%;font-family:sans-serif;text-align:end;letter-spacing:0px;word-spacing:0px;text-anchor:end;fill:#000000;fill-opacity:1;stroke:none;stroke-width:1px;stroke-linecap:butt;stroke-linejoin:miter;stroke-opacity:1"
       x="77.615967"
       y="56.566406"
       id="dist_right"
       sodipodi:linespacing="125%"
       class="svg_text"><tspan
         sodipodi:role="line"
         id="tspan4817-3-3-4"
         x="77.615967"
         y="56.566406"
         style="font-size:7.5px;text-align:start;text-anchor:start">0</tspan></text>
    <path
       id="path4153-9-6-0"
       style="fill:none;fill-rule:evenodd;stroke:#000000;stroke-width:0.5;stroke-linecap:butt;stroke-linejoin:miter;stroke-miterlimit:4;stroke-dasharray:none;stroke-opacity:1"
       d="m 49,33 1,-3 1,3 z m 1,-3 0,-15 m 0,55 -1,-3 2,0 z m 0,15 0,-15 m -20,-20 3,-1 0,2 z m -15,0 15,0 m 40,0 -3,-1 0,2 z m 15,0 -15,0" />
    <path
       id="contour_border_top"
       style="fill:none;fill-rule:evenodd;stroke:#000000;stroke-width:1px;stroke-linecap:butt;stroke-linejoin:miter;stroke-opacity:1"
       d="m 65,30 -5,5 m 0,-5 -5,5 m 0,-5 -5,5 m 0,-5 -5,5 m 0,-5 -5,5 m 0,-5 -5,5 m -5,-5 40,0"
       inkscape:connector-curvature="0" />
    <path
       id="contour_border_bottom"
       style="fill:none;fill-rule:evenodd;stroke:#000000;stroke-width:1px;stroke-linecap:butt;stroke-linejoin:miter;stroke-opacity:1"
       d="m 40,65 -5,5 m 10,-5 -5,5 m 10,-5 -5,5 m 10,-5 -5,5 m 10,-5 -5,5 m 10,-5 -5,5 m -30,0 40,0"
       inkscape:connector-curvature="0" />
    <path
       id="path4190"
       style="fill:none;fill-rule:evenodd;stroke:#000000;stroke-width:1px;stroke-linecap:butt;stroke-linejoin:miter;stroke-opacity:1"
       d="m 70,65 -5,5 m -30,-5 -5,5 m 40,-40 -5,5 m -30,-5 -5,5"
       class="svg_path"
       inkscape:connector-curvature="0" />
    <path
       id="contour_border_right"
       style="fill:none;fill-rule:evenodd;stroke:#000000;stroke-width:1px;stroke-linecap:butt;stroke-linejoin:miter;stroke-opacity:1"
       d="m 65,55 5,-5 m 0,-5 -5,5 m 0,10 5,-5 m 0,-15 -5,5 m 0,20 5,-5 m 0,-25 -5,5 m 5,-10 0,40"
       inkscape:connector-curvature="0" />
    <path
       id="contour_border_left"
       style="fill:none;fill-rule:evenodd;stroke:#000000;stroke-width:1px;stroke-linecap:butt;stroke-linejoin:miter;stroke-opacity:1"
       d="m 30,65 5,-5 m -5,0 5,-5 m -5,0 5,-5 m -5,0 5,-5 m 0,-5 -5,5 m 5,-10 -5,5 m 0,-10 0,40"
       inkscape:connector-curvature="0" />
  </g>
</svg>
