<?xml version="1.0" encoding="UTF-8" standalone="no"?>
<!-- Created with Inkscape (http://www.inkscape.org/) -->

<svg
   xmlns:dc="http://purl.org/dc/elements/1.1/"
   xmlns:cc="http://creativecommons.org/ns#"
   xmlns:rdf="http://www.w3.org/1999/02/22-rdf-syntax-ns#"
   xmlns:svg="http://www.w3.org/2000/svg"
   xmlns="http://www.w3.org/2000/svg"
   xmlns:sodipodi="http://sodipodi.sourceforge.net/DTD/sodipodi-0.dtd"
   xmlns:inkscape="http://www.inkscape.org/namespaces/inkscape"
   width="100"
   height="100"
   viewBox="0 0 100 100"
   id="svg6644"
   version="1.1"
   inkscape:version="0.91 r13725"
   sodipodi:docname="pocket.svg">
  <defs
     id="defs6646" />
  <sodipodi:namedview
     id="base"
     pagecolor="#ffffff"
     bordercolor="#666666"
     borderopacity="1.0"
     inkscape:pageopacity="0.0"
     inkscape:pageshadow="2"
     inkscape:zoom="5.6"
     inkscape:cx="30.281434"
     inkscape:cy="45.560503"
     inkscape:document-units="px"
     inkscape:current-layer="pocket"
     showgrid="true"
     units="px"
     inkscape:window-width="1680"
     inkscape:window-height="987"
     inkscape:window-x="-8"
     inkscape:window-y="-8"
     inkscape:window-maximized="1"
     inkscape:snap-nodes="true"
     inkscape:snap-bbox="true"
     inkscape:bbox-paths="true"
     inkscape:bbox-nodes="true"
     inkscape:snap-bbox-edge-midpoints="true"
     inkscape:snap-bbox-midpoints="true"
     inkscape:object-paths="true"
     inkscape:snap-intersection-paths="true"
     inkscape:object-nodes="true"
     inkscape:snap-smooth-nodes="true"
     inkscape:snap-midpoints="true"
     inkscape:snap-object-midpoints="true"
     inkscape:snap-center="true"
     inkscape:snap-text-baseline="true"
     inkscape:snap-page="false">
    <inkscape:grid
       type="xygrid"
       id="grid7192"
       empspacing="5" />
  </sodipodi:namedview>
  <metadata
     id="metadata6649">
    <rdf:RDF>
      <cc:Work
         rdf:about="">
        <dc:format>image/svg+xml</dc:format>
        <dc:type
           rdf:resource="http://purl.org/dc/dcmitype/StillImage" />
        <dc:title></dc:title>
      </cc:Work>
    </rdf:RDF>
  </metadata>
  <g
     inkscape:label="Ebene 1"
     inkscape:groupmode="layer"
     id="pocket">
    <path
       class="svg_path"
       id="pocket_border_top"
       style="fill:none;fill-rule:evenodd;stroke:#000000;stroke-width:1px;stroke-linecap:butt;stroke-linejoin:miter;stroke-opacity:1"
       d="m 20.353553,0 -10,10 M 10,10 90,10 M 90,0 80,10 M 80,0 70,10 M 70,0 60,10 M 60,0 50,10 M 50,0 40,10 M 40,0 30,10 M 30,0 20,10"
       inkscape:connector-curvature="0" />
    <path
       class="svg_path"
       id="pocket_border_bottom"
       style="fill:none;fill-rule:evenodd;stroke:#000000;stroke-width:1px;stroke-linecap:butt;stroke-linejoin:miter;stroke-opacity:1"
       d="M 20,90 10,100 M 90,90 10,90 m 80,0 -10,10 m 0,-10.00002 -10,10 M 70,90 60,100 m 0,-10 -10,10 m 0,-10 -10,10 m 0,-10 -10,10 m 0,-10 -10,10"
       inkscape:connector-curvature="0" />
    <path
       class="svg_path"
       id="pocket_border_right"
       style="fill:none;fill-rule:evenodd;stroke:#000000;stroke-width:1px;stroke-linecap:butt;stroke-linejoin:miter;stroke-opacity:1"
       d="M 100,10 90,20 m 0,-10 0,80 m 10,-70.00004 -10,10 m 10,0 -10,10 m 10,0 -10,10 m 10,0 L 90,60 m 10,0 -10,10 m 10,0 -10,10 m 10,0 -10,10"
       inkscape:connector-curvature="0" />
    <path
       class="svg_path"
       id="pocket_border_left"
       style="fill:none;fill-rule:evenodd;stroke:#000000;stroke-width:1px;stroke-linecap:butt;stroke-linejoin:miter;stroke-opacity:1"
       d="M 10.353553,10 0.35355339,20 M 10,10 10,90 M 0,90 10,80 M 0,80 10,70 M 0,70 10,60 M 0,60 10,49.99996 m -10,0 10,-10 m -10,0 10,-10 m 0,-10 -10,10"
       inkscape:connector-curvature="0" />
    <path
       id="path7268-43"
       style="fill:none;fill-rule:evenodd;stroke:#000000;stroke-width:1px;stroke-linecap:butt;stroke-linejoin:miter;stroke-opacity:1"
       d="m 10,89.646447 -10,10 M 100,0 90,10 M 10.353553,0 0.35355339,10 M 100,90 90,100"
       class="svg_path"
       inkscape:connector-curvature="0" />
    <path
       id="drill"
       style="fill:none;fill-rule:evenodd;stroke:#000000;stroke-width:1px;stroke-linecap:butt;stroke-linejoin:miter;stroke-opacity:1"
       d="m 40,50 20,0 M 50,40 50,60 m 5,-10 a 5,5 0 0 1 -5,5 5,5 0 0 1 -5,-5 5,5 0 0 1 5,-5 5,5 0 0 1 5,5 z"
       inkscape:connector-curvature="0"
       class="svg_path" />
    <path
       style="fill:none;fill-rule:evenodd;stroke:#000000;stroke-width:0.5;stroke-linecap:butt;stroke-linejoin:miter;stroke-miterlimit:4;stroke-dasharray:1, 1;stroke-dashoffset:0;stroke-opacity:1"
       d="m 85,15 -70,0 0,70 70,0 z"
       id="path4144"
       inkscape:connector-curvature="0"
       class="svg_path" />
    <text
       xml:space="preserve"
       style="font-style:normal;font-weight:normal;font-size:7.5px;line-height:125%;font-family:sans-serif;letter-spacing:0px;word-spacing:0px;fill:#000000;fill-opacity:1;stroke:none;stroke-width:1px;stroke-linecap:butt;stroke-linejoin:miter;stroke-opacity:1"
       x="14.855469"
       y="21.51123"
       id="P1"
       sodipodi:linespacing="125%"
       class="svg_text"><tspan
         sodipodi:role="line"
         id="tspan4817"
         x="14.855469"
         y="21.51123">[0,0]</tspan></text>
    <text
       xml:space="preserve"
       style="font-style:normal;font-weight:normal;font-size:7.5px;line-height:125%;font-family:sans-serif;text-align:end;letter-spacing:0px;word-spacing:0px;text-anchor:end;fill:#000000;fill-opacity:1;stroke:none;stroke-width:1px;stroke-linecap:butt;stroke-linejoin:miter;stroke-opacity:1"
       x="85.15332"
       y="83.51123"
       id="P2"
       sodipodi:linespacing="125%"
       class="svg_text"><tspan
         sodipodi:role="line"
         id="tspan4817-3"
         x="85.15332"
         y="83.51123">[0,0]</tspan></text>
  </g>
</svg>
