<?xml version="1.0" encoding="UTF-8" standalone="no"?>
<!-- Created with Inkscape (http://www.inkscape.org/) -->

<svg
   xmlns:dc="http://purl.org/dc/elements/1.1/"
   xmlns:cc="http://creativecommons.org/ns#"
   xmlns:rdf="http://www.w3.org/1999/02/22-rdf-syntax-ns#"
   xmlns:svg="http://www.w3.org/2000/svg"
   xmlns="http://www.w3.org/2000/svg"
   xmlns:sodipodi="http://sodipodi.sourceforge.net/DTD/sodipodi-0.dtd"
   xmlns:inkscape="http://www.inkscape.org/namespaces/inkscape"
   width="20"
   height="20"
   viewBox="0 0 20 20"
   id="svg2"
   version="1.1"
   inkscape:version="0.91 r13725"
   sodipodi:docname="button_sqrt.svg">
  <defs
     id="defs4" />
  <sodipodi:namedview
     id="base"
     pagecolor="#ffffff"
     bordercolor="#666666"
     borderopacity="1.0"
     inkscape:pageopacity="0.0"
     inkscape:pageshadow="2"
     inkscape:zoom="22.627417"
     inkscape:cx="7.1736961"
     inkscape:cy="5.4770193"
     inkscape:document-units="px"
     inkscape:current-layer="button_sqrt"
     showgrid="true"
     inkscape:window-width="1680"
     inkscape:window-height="987"
     inkscape:window-x="-8"
     inkscape:window-y="-8"
     inkscape:window-maximized="1"
     objecttolerance="20"
     guidetolerance="20"
     inkscape:snap-perpendicular="true"
     inkscape:snap-tangential="true"
     inkscape:snap-bbox="true"
     inkscape:object-nodes="true"
     units="px"
     inkscape:snap-text-baseline="true">
    <inkscape:grid
       type="xygrid"
       id="grid3336"
       units="px"
       spacingx="1"
       spacingy="1" />
  </sodipodi:namedview>
  <metadata
     id="metadata7">
    <rdf:RDF>
      <cc:Work
         rdf:about="">
        <dc:format>image/svg+xml</dc:format>
        <dc:type
           rdf:resource="http://purl.org/dc/dcmitype/StillImage" />
        <dc:title></dc:title>
      </cc:Work>
    </rdf:RDF>
  </metadata>
  <g
     inkscape:label="Ebene 1"
     inkscape:groupmode="layer"
     id="button_sqrt">
    <rect
       style="color:#000000;clip-rule:nonzero;display:inline;overflow:visible;visibility:visible;opacity:1;isolation:auto;mix-blend-mode:normal;color-interpolation:sRGB;color-interpolation-filters:linearRGB;solid-color:#000000;solid-opacity:1;fill:none;fill-opacity:1;fill-rule:evenodd;stroke:#000000;stroke-width:1;stroke-linecap:butt;stroke-linejoin:miter;stroke-miterlimit:4;stroke-dasharray:none;stroke-dashoffset:0;stroke-opacity:1;color-rendering:auto;image-rendering:auto;shape-rendering:auto;text-rendering:auto;enable-background:accumulate"
       id="rect3336"
       width="19"
       height="19"
       x="0.5"
       y="0.5"
       rx="1.9"
       class="button_border" />
    <path
       style="fill:none;fill-rule:evenodd;stroke:#000000;stroke-width:1;stroke-linecap:butt;stroke-linejoin:miter;stroke-opacity:1"
       d="m 3,11 2,0 2,4 2,-11 8,0"
       id="path4700"
       inkscape:connector-curvature="0"
       sodipodi:nodetypes="ccccc"
       class="button_path" />
    <path
       d="m 12.080078,7.6972656 q 0.28711,0.3046875 0.433594,0.609375 0.105469,0.2109375 0.345703,1.1074219 L 13.375,8.640625 q 0.205078,-0.28125 0.498047,-0.5332031 0.292969,-0.2578125 0.515625,-0.3515625 0.140625,-0.058594 0.310547,-0.058594 0.251953,0 0.398437,0.1347656 Q 15.25,7.9667969 15.25,8.1601563 q 0,0.2226562 -0.08789,0.3046875 -0.164062,0.1464843 -0.375,0.1464843 -0.123046,0 -0.263671,-0.052734 -0.275391,-0.09375 -0.369141,-0.09375 -0.140625,0 -0.333984,0.1640625 -0.363282,0.3046875 -0.867188,1.1777343 l 0.480469,2.0156251 q 0.111328,0.46289 0.1875,0.55664 0.07617,0.08789 0.152344,0.08789 0.123046,0 0.287109,-0.134766 0.322266,-0.269531 0.550781,-0.703125 l 0.205078,0.105469 q -0.36914,0.691406 -0.9375,1.148438 -0.322265,0.257812 -0.544922,0.257812 -0.328125,0 -0.521484,-0.369141 -0.123047,-0.228515 -0.509766,-1.96875 -0.914062,1.587891 -1.464843,2.044922 -0.357422,0.292969 -0.691407,0.292969 -0.2343746,0 -0.427734,-0.169922 Q 9.578125,12.841797 9.578125,12.625 q 0,-0.193359 0.1289063,-0.322266 0.1289062,-0.128906 0.3164067,-0.128906 0.1875,0 0.398437,0.1875 0.152344,0.134766 0.234375,0.134766 0.07031,0 0.181641,-0.09375 0.27539,-0.222656 0.75,-0.960938 Q 12.0625,10.703125 12.208984,10.375 11.845703,8.9511719 11.816406,8.8691406 11.681641,8.4882813 11.464844,8.3300781 11.248047,8.171875 10.826172,8.171875 q -0.134766,0 -0.310547,0.011719 l 0,-0.2109376 1.564453,-0.2753906 z"
       style="stroke-width:0.1;stroke-miterlimit:4;stroke-dasharray:none"
       id="path4703"
       inkscape:connector-curvature="0"
       class="button_path" />
  </g>
</svg>
