<?xml version="1.0" encoding="UTF-8" standalone="no"?>
<!-- Created with Inkscape (http://www.inkscape.org/) -->

<svg
   xmlns:dc="http://purl.org/dc/elements/1.1/"
   xmlns:cc="http://creativecommons.org/ns#"
   xmlns:rdf="http://www.w3.org/1999/02/22-rdf-syntax-ns#"
   xmlns:svg="http://www.w3.org/2000/svg"
   xmlns="http://www.w3.org/2000/svg"
   xmlns:sodipodi="http://sodipodi.sourceforge.net/DTD/sodipodi-0.dtd"
   xmlns:inkscape="http://www.inkscape.org/namespaces/inkscape"
   width="20"
   height="20"
   viewBox="0 0 20 20"
   id="svg2"
   version="1.1"
   inkscape:version="0.91 r13725"
   sodipodi:docname="button_load_points.svg">
  <defs
     id="defs4" />
  <sodipodi:namedview
     id="base"
     pagecolor="#ffffff"
     bordercolor="#666666"
     borderopacity="1.0"
     inkscape:pageopacity="0.0"
     inkscape:pageshadow="2"
     inkscape:zoom="22.627417"
     inkscape:cx="9.6287921"
     inkscape:cy="9.8068562"
     inkscape:document-units="px"
     inkscape:current-layer="button_load_points"
     showgrid="true"
     inkscape:window-width="1680"
     inkscape:window-height="987"
     inkscape:window-x="-8"
     inkscape:window-y="-8"
     inkscape:window-maximized="1"
     objecttolerance="20"
     guidetolerance="20"
     inkscape:snap-perpendicular="true"
     inkscape:snap-tangential="true"
     inkscape:snap-bbox="true"
     inkscape:object-nodes="true"
     units="px"
     inkscape:snap-text-baseline="true">
    <inkscape:grid
       type="xygrid"
       id="grid3336"
       units="px"
       spacingx="1"
       spacingy="1" />
  </sodipodi:namedview>
  <metadata
     id="metadata7">
    <rdf:RDF>
      <cc:Work
         rdf:about="">
        <dc:format>image/svg+xml</dc:format>
        <dc:type
           rdf:resource="http://purl.org/dc/dcmitype/StillImage" />
        <dc:title></dc:title>
      </cc:Work>
    </rdf:RDF>
  </metadata>
  <g
     inkscape:label="Ebene 1"
     inkscape:groupmode="layer"
     id="button_load_points">
    <rect
       id="rect3336"
       width="19"
       height="19"
       x="0.5"
       y="0.5"
       rx="1.9"
       class="button_border"
       style="color:#000000;clip-rule:nonzero;display:inline;overflow:visible;visibility:visible;opacity:1;isolation:auto;mix-blend-mode:normal;color-interpolation:sRGB;color-interpolation-filters:linearRGB;solid-color:#000000;solid-opacity:1;fill:none;fill-opacity:1;fill-rule:evenodd;stroke:#000000;stroke-width:1;stroke-linecap:butt;stroke-linejoin:miter;stroke-miterlimit:4;stroke-dasharray:none;stroke-dashoffset:0;stroke-opacity:1;color-rendering:auto;image-rendering:auto;shape-rendering:auto;text-rendering:auto;enable-background:accumulate" />
    <path
       id="path4144"
       style="fill:none;fill-opacity:1;stroke:#000000;stroke-width:0.5;stroke-miterlimit:4;stroke-dasharray:none;stroke-opacity:1"
       d="M 17,14.46272 A 0.36607143,0.36567998 0 0 1 16.633928,14.8284 0.36607143,0.36567998 0 0 1 16.267857,14.46272 0.36607143,0.36567998 0 0 1 16.633928,14.09704 0.36607143,0.36567998 0 0 1 17,14.46272 Z M 9.2660712,13 16.733929,13 c 0.770653,0 1.391071,0.619755 1.391071,1.389584 l 0,0.146272 c 0,0.769829 -0.620418,1.389584 -1.391071,1.389584 l -7.4678578,0 c -0.7706536,0 -1.3910714,-0.619755 -1.3910714,-1.389584 l 0,-0.146272 C 7.8749998,13.619755 8.4954176,13 9.2660712,13 Z M 9.727525,6.2866733 13,4 l 3.272475,2.2866733 -1.636237,0 0,4.5733477 -3.272475,0 0,-4.5733477 z M 3,15 7,15 m -2,-2 0,4 m 1.5,-2 c 0,0.828427 -0.671573,1.5 -1.5,1.5 -0.828427,0 -1.5,-0.671573 -1.5,-1.5 0,-0.828427 0.671573,-1.5 1.5,-1.5 0.828427,0 1.5,0.671573 1.5,1.5 z M 3,10 7,10 M 5,8 5,12 M 6.5,10 C 6.5,10.828427 5.828427,11.5 5,11.5 4.171573,11.5 3.5,10.828427 3.5,10 3.5,9.171573 4.171573,8.5 5,8.5 5.828427,8.5 6.5,9.171573 6.5,10 Z M 3,5 7,5 M 5,3 5,7 M 6.5,5 C 6.5,5.8284271 5.828427,6.5 5,6.5 4.171573,6.5 3.5,5.8284271 3.5,5 3.5,4.1715729 4.171573,3.5 5,3.5 5.828427,3.5 6.5,4.1715729 6.5,5 Z"
       class="button_path"
       inkscape:connector-curvature="0" />
  </g>
</svg>
