<?xml version="1.0" encoding="UTF-8" standalone="no"?>
<!-- Created with Inkscape (http://www.inkscape.org/) -->

<svg
   xmlns:dc="http://purl.org/dc/elements/1.1/"
   xmlns:cc="http://creativecommons.org/ns#"
   xmlns:rdf="http://www.w3.org/1999/02/22-rdf-syntax-ns#"
   xmlns:svg="http://www.w3.org/2000/svg"
   xmlns="http://www.w3.org/2000/svg"
   xmlns:sodipodi="http://sodipodi.sourceforge.net/DTD/sodipodi-0.dtd"
   xmlns:inkscape="http://www.inkscape.org/namespaces/inkscape"
   width="20"
   height="20"
   viewBox="0 0 20 20"
   id="svg2"
   version="1.1"
   inkscape:version="0.91 r13725"
   sodipodi:docname="button_midpoint.svg">
  <defs
     id="defs4" />
  <sodipodi:namedview
     id="base"
     pagecolor="#ffffff"
     bordercolor="#666666"
     borderopacity="1.0"
     inkscape:pageopacity="0.0"
     inkscape:pageshadow="2"
     inkscape:zoom="16"
     inkscape:cx="13.009534"
     inkscape:cy="3.4943178"
     inkscape:document-units="px"
     inkscape:current-layer="svg2"
     showgrid="true"
     inkscape:window-width="1680"
     inkscape:window-height="987"
     inkscape:window-x="-8"
     inkscape:window-y="-8"
     inkscape:window-maximized="1"
     objecttolerance="20"
     guidetolerance="20"
     inkscape:snap-perpendicular="true"
     inkscape:snap-tangential="true"
     inkscape:snap-bbox="true"
     inkscape:object-nodes="true"
     units="px"
     inkscape:snap-text-baseline="true">
    <inkscape:grid
       type="xygrid"
       id="grid3336"
       units="px"
       spacingx="1"
       spacingy="1" />
  </sodipodi:namedview>
  <metadata
     id="metadata7">
    <rdf:RDF>
      <cc:Work
         rdf:about="">
        <dc:format>image/svg+xml</dc:format>
        <dc:type
           rdf:resource="http://purl.org/dc/dcmitype/StillImage" />
        <dc:title></dc:title>
      </cc:Work>
    </rdf:RDF>
  </metadata>
  <g
     inkscape:label="Ebene 1"
     inkscape:groupmode="layer"
     id="button_midpoint">
    <rect
       id="rect3336"
       width="19"
       height="19"
       x="0.5"
       y="0.5"
       rx="1.9"
       class="button_border"
       style="color:#000000;clip-rule:nonzero;display:inline;overflow:visible;visibility:visible;opacity:1;isolation:auto;mix-blend-mode:normal;color-interpolation:sRGB;color-interpolation-filters:linearRGB;solid-color:#000000;solid-opacity:1;fill:none;fill-opacity:1;fill-rule:evenodd;stroke:#000000;stroke-width:1;stroke-linecap:butt;stroke-linejoin:miter;stroke-miterlimit:4;stroke-dasharray:none;stroke-dashoffset:0;stroke-opacity:1;color-rendering:auto;image-rendering:auto;shape-rendering:auto;text-rendering:auto;enable-background:accumulate" />
    <path
       id="path4145"
       style="font-style:normal;font-variant:normal;font-weight:normal;font-stretch:normal;font-size:10px;font-family:'Times New Roman';-inkscape-font-specification:'Times New Roman, '"
       d="m 15.593262,12.128906 -0.463867,1.274414 -3.90625,0 0,-0.180664 q 1.723632,-1.572265 2.426757,-2.568359 0.703125,-0.9960939 0.703125,-1.8212892 0,-0.6298828 -0.385742,-1.0351562 -0.385742,-0.4052735 -0.922851,-0.4052735 -0.488282,0 -0.878907,0.288086 -0.385742,0.2832031 -0.571289,0.8349609 l -0.180664,0 q 0.122071,-0.9033203 0.625,-1.3867188 0.507813,-0.4833984 1.264649,-0.4833984 0.805664,0 1.342773,0.5175781 0.541992,0.5175782 0.541992,1.2207032 0,0.5029297 -0.234375,1.0058593 -0.361328,0.7910156 -1.171875,1.6748046 -1.21582,1.328125 -1.518554,1.601563 l 1.728515,0 q 0.527344,0 0.737305,-0.03906 0.214844,-0.03906 0.385742,-0.15625 0.170899,-0.12207 0.297852,-0.341797 l 0.180664,0 z m -4.555664,-5.6689451 -2.3974613,7.0800781 -0.390625,0 2.3974613,-7.0800781 0.390625,0 z m -6.6308597,0.9716797 1.6113281,-0.7861328 0.1611328,0 0,5.5908202 q 0,0.556641 0.043945,0.69336 0.048828,0.136718 0.1953125,0.20996 0.1464844,0.07324 0.5957032,0.08301 l 0,0.180664 -2.4902344,0 0,-0.180664 q 0.46875,-0.0098 0.6054687,-0.07813 0.1367188,-0.07324 0.1904297,-0.190429 0.053711,-0.122071 0.053711,-0.717774 l 0,-3.5742186 q 0,-0.7226563 -0.048828,-0.9277344 -0.03418,-0.15625 -0.1269531,-0.2294922 -0.087891,-0.073242 -0.2148437,-0.073242 -0.1806641,0 -0.5029297,0.1513672 L 4.4067383,7.4316406 Z"
       class="button_path"
       inkscape:connector-curvature="0" />
  </g>
</svg>
