<?xml version="1.0" encoding="UTF-8" standalone="no"?>
<!-- Created with Inkscape (http://www.inkscape.org/) -->

<svg
   xmlns:dc="http://purl.org/dc/elements/1.1/"
   xmlns:cc="http://creativecommons.org/ns#"
   xmlns:rdf="http://www.w3.org/1999/02/22-rdf-syntax-ns#"
   xmlns:svg="http://www.w3.org/2000/svg"
   xmlns="http://www.w3.org/2000/svg"
   xmlns:sodipodi="http://sodipodi.sourceforge.net/DTD/sodipodi-0.dtd"
   xmlns:inkscape="http://www.inkscape.org/namespaces/inkscape"
   width="20"
   height="20"
   viewBox="0 0 20 20"
   id="svg2"
   version="1.1"
   inkscape:version="0.91 r13725"
   sodipodi:docname="button_points.svg">
  <defs
     id="defs4" />
  <sodipodi:namedview
     id="base"
     pagecolor="#ffffff"
     bordercolor="#666666"
     borderopacity="1.0"
     inkscape:pageopacity="0.0"
     inkscape:pageshadow="2"
     inkscape:zoom="22.627417"
     inkscape:cx="12.232909"
     inkscape:cy="10.694875"
     inkscape:document-units="px"
     inkscape:current-layer="svg2"
     showgrid="true"
     inkscape:window-width="1680"
     inkscape:window-height="987"
     inkscape:window-x="-8"
     inkscape:window-y="-8"
     inkscape:window-maximized="1"
     objecttolerance="20"
     guidetolerance="20"
     inkscape:snap-perpendicular="true"
     inkscape:snap-tangential="true"
     inkscape:snap-bbox="true"
     inkscape:object-nodes="true"
     units="px"
     inkscape:snap-text-baseline="true">
    <inkscape:grid
       type="xygrid"
       id="grid3336"
       units="px"
       spacingx="1"
       spacingy="1" />
  </sodipodi:namedview>
  <metadata
     id="metadata7">
    <rdf:RDF>
      <cc:Work
         rdf:about="">
        <dc:format>image/svg+xml</dc:format>
        <dc:type
           rdf:resource="http://purl.org/dc/dcmitype/StillImage" />
        <dc:title></dc:title>
      </cc:Work>
    </rdf:RDF>
  </metadata>
  <g
     inkscape:label="Ebene 1"
     inkscape:groupmode="layer"
     id="button_points">
    <rect
       id="rect3336"
       width="19"
       height="19"
       x="0.5"
       y="0.5"
       rx="1.9"
       class="button_border"
       style="color:#000000;clip-rule:nonzero;display:inline;overflow:visible;visibility:visible;opacity:1;isolation:auto;mix-blend-mode:normal;color-interpolation:sRGB;color-interpolation-filters:linearRGB;solid-color:#000000;solid-opacity:1;fill:none;fill-opacity:1;fill-rule:evenodd;stroke:#000000;stroke-width:1;stroke-linecap:butt;stroke-linejoin:miter;stroke-miterlimit:4;stroke-dasharray:none;stroke-dashoffset:0;stroke-opacity:1;color-rendering:auto;image-rendering:auto;shape-rendering:auto;text-rendering:auto;enable-background:accumulate" />
    <path
       id="path6565-8"
       style="fill:none;fill-rule:evenodd;stroke:#000000;stroke-width:0.5;stroke-linecap:butt;stroke-linejoin:miter;stroke-miterlimit:4;stroke-dasharray:none;stroke-opacity:1"
       d="m 3,14 6,0 M 6,11 6,17 M 7.5,14 A 1.5,1.5 0 0 1 6,15.5 1.5,1.5 0 0 1 4.5,14 1.5,1.5 0 0 1 6,12.5 1.5,1.5 0 0 1 7.5,14 Z M 11,6 17,6 M 14,3 14,9 M 15.5,6 A 1.5,1.5 0 0 1 14,7.5 1.5,1.5 0 0 1 12.5,6 1.5,1.5 0 0 1 14,4.5 1.5,1.5 0 0 1 15.5,6 Z M 3,6 9,6 M 6,3 6,9 M 7.5,6 A 1.5,1.5 0 0 1 6,7.5 1.5,1.5 0 0 1 4.5,6 1.5,1.5 0 0 1 6,4.5 1.5,1.5 0 0 1 7.5,6 Z"
       class="button_path"
       inkscape:connector-curvature="0" />
  </g>
</svg>
