<svg xmlns:rdf="http://www.w3.org/1999/02/22-rdf-syntax-ns#" xmlns="http://www.w3.org/2000/svg" version="1.1" xmlns:cc="http://creativecommons.org/ns#" xmlns:dc="http://purl.org/dc/elements/1.1/" viewBox="0 0 20 20">
 <g id="button_pocket">
  <rect style="color-rendering:auto;color:#000000;shape-rendering:auto;solid-color:#000000;stroke:#000;fill:none;mix-blend-mode:normal;image-rendering:auto;isolation:auto" class="button_border" rx="1.9" height="19" width="19" y=".5" x=".5"/>
  <path style="stroke:#000;stroke-width:.5;fill:none" d="m7 2-2 2m10 5-1 2-1-2m-7.75-5h9.5c0.692 0 1.25 0.5575 1.25 1.25v9.5c0 0.692-0.558 1.25-1.25 1.25h-9.5c-0.6925 0-1.25-0.558-1.25-1.25v-9.5c0-0.6925 0.5575-1.25 1.25-1.25zm8.75 7v-5h-8v8h6m3 0c0 0.55228-0.44772 1-1 1s-1-0.44772-1-1 0.44772-1 1-1 1 0.44772 1 1zm-13-1 2-2m-2 5 2-2m-1 4 2-2m1 2 2-2m1 2 2-2m1 2 2-2m4-1-3 3m1-4 2-2m-2-1 2-2m-2-1 2-2m0-3-2 2m0-3-2 2m-1-2-2 2m-7 4-2 2m8-8-2 2m-4 1-2 2m2-5-2 2" class="button_path"/>
 </g>
</svg>
