<svg xmlns:rdf="http://www.w3.org/1999/02/22-rdf-syntax-ns#" xmlns="http://www.w3.org/2000/svg" version="1.1" xmlns:cc="http://creativecommons.org/ns#" xmlns:dc="http://purl.org/dc/elements/1.1/" viewBox="0 0 20 20">
 <g id="button_midpoint">
  <rect style="color-rendering:auto;color:#000000;shape-rendering:auto;solid-color:#000000;mix-blend-mode:normal;image-rendering:auto;isolation:auto" class="button_border" rx="1.9" height="19" width="19" y=".5" x=".5"/>
  <path style="stroke-width:.1" class="button_path" d="m15.593 12.129-0.46387 1.2744h-3.9062v-0.18066q1.7236-1.5723 2.4268-2.5684 0.70312-0.99609 0.70312-1.8213 0-0.62988-0.38574-1.0352-0.38574-0.40527-0.92285-0.40527-0.48828 0-0.87891 0.28809-0.38574 0.2832-0.57129 0.83496h-0.18066q0.12207-0.90332 0.625-1.3867 0.50781-0.4834 1.2646-0.4834 0.80566 0 1.3428 0.51758 0.54199 0.51758 0.54199 1.2207 0 0.50293-0.23438 1.0059-0.36133 0.79102-1.1719 1.6748-1.2158 1.3281-1.5186 1.6016h1.7285q0.52734 0 0.7373-0.03906 0.21484-0.03906 0.38574-0.15625 0.1709-0.12207 0.29785-0.3418h0.18066zm-4.5557-5.6689-2.3975 7.0801h-0.39062l2.3975-7.0801h0.39062zm-6.6309 0.97168 1.6113-0.78613h0.16113v5.5908q0 0.55664 0.043945 0.69336 0.048828 0.13672 0.19531 0.20996t0.5957 0.08301v0.18066h-2.4902v-0.18066q0.46875-0.0098 0.60547-0.07813 0.13672-0.07324 0.19043-0.19043 0.053711-0.12207 0.053711-0.71777v-3.5742q0-0.72266-0.048828-0.92773-0.03418-0.15625-0.12695-0.22949-0.087891-0.073242-0.21484-0.073242-0.18066 0-0.50293 0.15137l-0.0727-0.1512z"/>
 </g>
</svg>
