<svg xmlns:rdf="http://www.w3.org/1999/02/22-rdf-syntax-ns#" xmlns="http://www.w3.org/2000/svg" version="1.1" xmlns:cc="http://creativecommons.org/ns#" xmlns:dc="http://purl.org/dc/elements/1.1/" viewBox="0 0 20 20">
 <g id="button_sqrt">
  <rect style="color-rendering:auto;color:#000000;shape-rendering:auto;solid-color:#000000;stroke:#000;fill:none;mix-blend-mode:normal;image-rendering:auto;isolation:auto" class="button_border" rx="1.9" height="19" width="19" y=".5" x=".5"/>
  <path class="button_path" d="m5.4375 6.5938c-0.10498 0-0.19434 0.038086-0.26758 0.11133-0.070801 0.070801-0.10547 0.15723-0.10547 0.25977s0.036133 0.19043 0.10938 0.26367c0.073242 0.073242 0.16113 0.10938 0.26367 0.10938s0.18896-0.036133 0.25977-0.10938c0.073242-0.073242 0.10938-0.16113 0.10938-0.26367s-0.036133-0.18896-0.10938-0.25977c-0.0708-0.0733-0.1573-0.1113-0.2598-0.1113zm7.0703 0c-0.60059 0.26855-1.0874 0.71484-1.4609 1.3398-0.37354 0.62256-0.56055 1.3135-0.56055 2.0703 0 0.51758 0.09668 1.0171 0.28711 1.498 0.19043 0.48096 0.46094 0.89795 0.8125 1.252 0.24658 0.24902 0.55322 0.4668 0.92187 0.65234v-0.13672c-0.24658-0.1709-0.4458-0.34912-0.59961-0.53711-0.15137-0.18799-0.27295-0.38477-0.36328-0.58984-0.09033-0.20264-0.167-0.47168-0.23047-0.80859-0.08057-0.42725-0.12109-0.90332-0.12109-1.4258 0-0.48096 0.04736-0.94287 0.14258-1.3848 0.09521-0.44189 0.24072-0.80566 0.43359-1.0938 0.19287-0.28809 0.43799-0.51562 0.73828-0.68164v-0.1543zm3.6699 0v0.1543c0.24902 0.1709 0.4502 0.35107 0.60156 0.53906 0.15137 0.18799 0.271 0.3833 0.36133 0.58594 0.09277 0.20264 0.16943 0.47168 0.23047 0.80859 0.08057 0.42969 0.12109 0.90381 0.12109 1.4238 0 0.48096-0.04736 0.94434-0.14258 1.3887-0.09277 0.44189-0.23633 0.80615-0.43164 1.0918-0.19287 0.28809-0.43994 0.51514-0.74024 0.68359v0.13672c0.60303-0.26856 1.0898-0.71484 1.4609-1.3398 0.37354-0.62256 0.56055-1.3135 0.56055-2.0703 0-0.52002-0.09473-1.0195-0.28516-1.498-0.19-0.4818-0.461-0.9003-0.81-1.2567-0.247-0.249-0.555-0.4653-0.926-0.6484zm-13.36 1.7539c-0.30029 1e-7 -0.5459 0.09375-0.73633 0.2793-0.18799 0.18555-0.28125 0.41553-0.28125 0.69141 0 0.2124 0.054199 0.38818 0.16406 0.52734 0.10986 0.1416 0.34131 0.30078 0.69531 0.47656s0.58984 0.3208 0.70703 0.43555c0.11963 0.11475 0.17969 0.25732 0.17969 0.42578 0 0.13916-0.052734 0.25732-0.16016 0.35742-0.105 0.098-0.2417 0.147-0.4101 0.147-0.2393 0-0.4556-0.087-0.6485-0.26-0.1928-0.174-0.3242-0.43-0.3926-0.772h-0.12109v1.1973h0.12109c0.031738-0.06347 0.07666-0.0957 0.13281-0.0957 0.05127 0.000001 0.1167 0.0127 0.19727 0.03711 0.26367 0.07324 0.49805 0.10938 0.70312 0.10938 0.28564 0 0.54395-0.0918 0.77344-0.27734 0.23193-0.18799 0.34766-0.43506 0.34766-0.74023 0-0.39551-0.24854-0.71533-0.74414-0.95703l-0.5352-0.2593c-0.2319-0.1123-0.3852-0.2182-0.4609-0.3183-0.0781-0.0977-0.1172-0.2149-0.1172-0.3516 0-0.10986 0.053223-0.21045 0.1582-0.30078 0.10498-0.090332 0.24316-0.13477 0.41406-0.13477 0.22461 0 0.40869 0.063965 0.55273 0.19336 0.14648 0.12939 0.26465 0.37354 0.35742 0.73242h0.12109v-1.1426h-0.12109c-0.029297 0.058594-0.054199 0.098144-0.076172 0.11523-0.021973 0.01709-0.052734 0.025391-0.091797 0.025391-0.041504 0-0.12354-0.018066-0.24805-0.054687-0.18799-0.056153-0.34863-0.085938-0.48047-0.085938zm2.7617 0-1.0117 0.41016 0.052734 0.13281c0.097656-0.036621 0.17969-0.054687 0.24805-0.054687 0.063476 0 0.11377 0.015137 0.15039 0.046875 0.036621 0.029297 0.062988 0.083984 0.080078 0.16211 0.022 0.1073 0.0332 0.3412 0.0332 0.705v1.293c0 0.20752-0.016601 0.34863-0.050781 0.42188-0.031738 0.07324-0.07666 0.12646-0.13281 0.1582-0.056152 0.03174-0.16455 0.04687-0.32812 0.04687v0.13281h1.6289v-0.13281c-0.15869 0-0.26904-0.0166-0.33008-0.05078-0.058594-0.03418-0.10303-0.08594-0.13477-0.1543-0.029297-0.0708-0.044922-0.21191-0.044922-0.42188v-2.6953h-0.16016zm1.9043 0-1.0117 0.41016 0.054688 0.13281c0.095215-0.036621 0.17773-0.054687 0.24609-0.054687 0.063476 0 0.11377 0.015137 0.15039 0.046875 0.039063 0.031738 0.066894 0.091797 0.083984 0.17969 0.019531 0.087891 0.029297 0.3335 0.029297 0.73633v1.2441c0 0.24414-0.030762 0.41016-0.091797 0.49805-0.058594 0.08545-0.17285 0.12891-0.34375 0.12891h-0.074219v0.13281h1.6602v-0.13281c-0.18311 0-0.30615-0.01513-0.36719-0.04687-0.058593-0.03418-0.10449-0.0874-0.13867-0.1582-0.026855-0.05371-0.041016-0.19482-0.041016-0.42188v-1.7676c0.28809-0.31739 0.57861-0.47657 0.86914-0.47657 0.18799 0 0.32031 0.069824 0.39844 0.20898 0.080566 0.13672 0.12109 0.35693 0.12109 0.66211v1.373c0 0.19287-0.00391 0.30908-0.013672 0.3457-0.024414 0.09277-0.069336 0.16211-0.13281 0.21094-0.061035 0.04639-0.16992 0.07031-0.32617 0.07031h-0.068359v0.13281h1.6582v-0.13281c-0.16113 0-0.27295-0.0166-0.33398-0.05078-0.058594-0.03418-0.1001-0.08155-0.12695-0.14258-0.03418-0.07568-0.052734-0.22119-0.052734-0.43359v-1.4316c-0.0005-0.3028-0.0269-0.5274-0.0806-0.6739-0.0781-0.21-0.1826-0.3589-0.3144-0.4492-0.1319-0.0928-0.2896-0.1406-0.4727-0.1406-0.35645 0-0.72998 0.2373-1.123 0.71094l-0.00195-0.71094h-0.15625zm6.5 0.14062-0.97852 0.17188v0.13086c0.07324-0.00488 0.13916-0.00586 0.19531-0.00586 0.17578 0 0.3081 0.031738 0.39844 0.097656 0.09033 0.065918 0.16455 0.1792 0.2207 0.33789 0.01221 0.03418 0.09277 0.34814 0.24414 0.94141-0.06104 0.13672-0.18896 0.3584-0.38672 0.66602-0.19775 0.30762-0.354 0.50684-0.46875 0.59961-0.04638 0.03906-0.08593 0.05859-0.11523 0.05859-0.03418 0-0.08301-0.02783-0.14648-0.08398-0.08789-0.07813-0.16992-0.11719-0.24805-0.11719-0.07812 0-0.14355 0.02637-0.19727 0.08008-0.05371 0.05371-0.08203 0.12061-0.08203 0.20117 0 0.09033 0.0293 0.16308 0.08789 0.2168 0.08057 0.0708 0.16992 0.10547 0.26758 0.10547 0.13916 0 0.28467-0.05957 0.43359-0.18164 0.22949-0.19043 0.5332-0.61768 0.91406-1.2793 0.16113 0.7251 0.26709 1.1353 0.31836 1.2305 0.08057 0.15381 0.18945 0.23047 0.32617 0.23047 0.09277 0 0.20752-0.05274 0.3418-0.16016 0.23682-0.19043 0.43213-0.43066 0.58594-0.71875l-0.12891-0.06445c-0.09521 0.18066-0.20947 0.32715-0.34375 0.43945-0.06836 0.05615-0.12842 0.08398-0.17969 0.08398-0.03174 0-0.06396-0.01807-0.0957-0.05469-0.03174-0.03906-0.0708-0.15478-0.11719-0.34766l-0.3-1.2604c0.20996-0.36377 0.3916-0.60938 0.54297-0.73633 0.08057-0.068359 0.15039-0.10352 0.20898-0.10352 0.03906 0 0.11572 0.019531 0.23047 0.058594 0.05859 0.021973 0.11279 0.033203 0.16406 0.033203 0.08789-1e-7 0.16602-0.030762 0.23438-0.091797 0.03662-0.03418 0.05469-0.09668 0.05469-0.18945 0-0.080566-0.03028-0.14893-0.09375-0.20508-0.06103-0.056153-0.14502-0.083984-0.25-0.083984-0.0708 0-0.13477 0.010742-0.19336 0.035156-0.09277 0.039063-0.2002 0.11328-0.32226 0.2207-0.12207 0.10498-0.22705 0.21484-0.3125 0.33203l-0.322 0.4844c-0.1-0.3735-0.171-0.6035-0.215-0.6914-0.061-0.1269-0.152-0.2539-0.272-0.3808z"/>
 </g>
</svg>
