<svg xmlns:rdf="http://www.w3.org/1999/02/22-rdf-syntax-ns#" xmlns="http://www.w3.org/2000/svg" version="1.1" xmlns:cc="http://creativecommons.org/ns#" xmlns:dc="http://purl.org/dc/elements/1.1/" viewBox="0 0 100 100">
 <g id="pocket">
  <path id="pocket_border_top" d="m20.354 0-10 10m-0.354 0h80m0-10-10 10m0-10-10 10m0-10-10 10m0-10-10 10m0-10-10 10m0-10-10 10m0-10-10 10" style="stroke-width:1px" class="svg_path"/>
  <path id="pocket_border_bottom" d="m20 90-10 10m80-10h-80m80 0-10 10m0-10-10 10m0-10-10 10m0-10-10 10m0-10-10 10m0-10-10 10m0-10-10 10" style="stroke-width:1px" class="svg_path"/>
  <path id="pocket_border_right" d="m100 10-10 10m0-10v80m10-70-10 10m10 0-10 10m10 0-10 10m10 0l-10 10m10 0-10 10m10 0-10 10m10 0-10 10" style="stroke-width:1px" class="svg_path"/>
  <path id="pocket_border_left" d="m10.354 10-10 10m9.646-10v80m-10 0 10-10m-10 0 10-10m-10 0 10-10m-10 0 10-10m-10 0 10-10m-10 0 10-10m0-10-10 10" style="stroke-width:1px" class="svg_path"/>
  <path class="svg_path" style="stroke-width:1px" d="m10 89.646-10 10m100-99.646-10 10m-79.646-10-10 10m99.646 80-10 10"/>
  <path id="drill" class="svg_path" style="stroke-width:.5;fill:none" d="m5 85h20m-10-10v20m5-10a5 5 0 0 1 -5 5 5 5 0 0 1 -5 -5 5 5 0 0 1 5 -5 5 5 0 0 1 5 5z"/>
  <path class="svg_path" style="stroke-dasharray:1, 1;stroke-width:.5" d="m85 15h-70v70h70z"/>
  <text id="dist_bottom" style="letter-spacing:0px;font-size:7.5px;word-spacing:0px;font-family:sans-serif;line-height:125%" xml:space="preserve" class="svg_text" y="83.893799" x="50.615967"><tspan x="50.615967" style="font-size:7.5px" y="83.893799">0</tspan></text>
  <text id="dist_top" style="font-size:7.5px;letter-spacing:0px;text-anchor:end;word-spacing:0px;text-align:end;font-family:sans-serif;line-height:125%" xml:space="preserve" class="svg_text" y="21.566406" x="50.615967"><tspan x="50.615967" style="font-size:7.5px;text-anchor:start;text-align:start" y="21.566406">0</tspan></text>
  <text id="dist_left" style="font-size:7.5px;letter-spacing:0px;text-anchor:end;word-spacing:0px;text-align:end;font-family:sans-serif;line-height:125%" xml:space="preserve" class="svg_text" y="48.893799" x="17.615967"><tspan x="17.615967" style="font-size:7.5px;text-anchor:start;text-align:start" y="48.893799">0</tspan></text>
  <text id="dist_right" style="font-size:7.5px;letter-spacing:0px;text-anchor:end;word-spacing:0px;text-align:end;font-family:sans-serif;line-height:125%" xml:space="preserve" class="svg_text" y="56.566406" x="82.391357"><tspan x="82.391357" style="font-size:7.5px;text-anchor:end;text-align:end" y="56.566406">0</tspan></text>
  <path class="svg_path" style="stroke-width:.5;fill:none" d="m90 50h-12m12 0 3-1v2zm-80 0h12m-12 0-3-1v2zm40 40v-12m0 12-1 3h2zm0-68v-12m-1-3 1 3 1-3z"/>
 </g>
</svg>
