<?xml version="1.0" encoding="UTF-8" standalone="no"?>
<!-- Created with Inkscape (http://www.inkscape.org/) -->

<svg
   xmlns:dc="http://purl.org/dc/elements/1.1/"
   xmlns:cc="http://creativecommons.org/ns#"
   xmlns:rdf="http://www.w3.org/1999/02/22-rdf-syntax-ns#"
   xmlns:svg="http://www.w3.org/2000/svg"
   xmlns="http://www.w3.org/2000/svg"
   xmlns:sodipodi="http://sodipodi.sourceforge.net/DTD/sodipodi-0.dtd"
   xmlns:inkscape="http://www.inkscape.org/namespaces/inkscape"
   width="30"
   height="100"
   viewBox="0 0 30 100"
   id="svg6644"
   version="1.1"
   inkscape:version="0.91 r13725"
   sodipodi:docname="pocket_side.svg">
  <defs
     id="defs6646" />
  <sodipodi:namedview
     id="base"
     pagecolor="#ffffff"
     bordercolor="#666666"
     borderopacity="1.0"
     inkscape:pageopacity="0.0"
     inkscape:pageshadow="2"
     inkscape:zoom="5.6"
     inkscape:cx="12.548626"
     inkscape:cy="57.288014"
     inkscape:document-units="px"
     inkscape:current-layer="pocket"
     showgrid="true"
     units="px"
     inkscape:window-width="1680"
     inkscape:window-height="987"
     inkscape:window-x="-8"
     inkscape:window-y="-8"
     inkscape:window-maximized="1"
     inkscape:snap-nodes="true"
     inkscape:snap-bbox="true"
     inkscape:bbox-paths="true"
     inkscape:bbox-nodes="true"
     inkscape:snap-bbox-edge-midpoints="true"
     inkscape:snap-bbox-midpoints="true"
     inkscape:object-paths="true"
     inkscape:snap-intersection-paths="true"
     inkscape:object-nodes="true"
     inkscape:snap-smooth-nodes="true"
     inkscape:snap-midpoints="true"
     inkscape:snap-object-midpoints="true"
     inkscape:snap-center="true"
     inkscape:snap-text-baseline="true"
     inkscape:snap-page="false">
    <inkscape:grid
       type="xygrid"
       id="grid7192"
       empspacing="5" />
  </sodipodi:namedview>
  <metadata
     id="metadata6649">
    <rdf:RDF>
      <cc:Work
         rdf:about="">
        <dc:format>image/svg+xml</dc:format>
        <dc:type
           rdf:resource="http://purl.org/dc/dcmitype/StillImage" />
        <dc:title></dc:title>
      </cc:Work>
    </rdf:RDF>
  </metadata>
  <g
     inkscape:label="Ebene 1"
     inkscape:groupmode="layer"
     id="pocket">
    <text
       xml:space="preserve"
       style="font-style:normal;font-weight:normal;font-size:7.5px;line-height:125%;font-family:sans-serif;letter-spacing:0px;word-spacing:0px;fill:#000000;fill-opacity:1;stroke:none;stroke-width:1px;stroke-linecap:butt;stroke-linejoin:miter;stroke-opacity:1"
       x="4.6159668"
       y="-24.106201"
       id="dist_z"
       sodipodi:linespacing="125%"
       class="svg_text"
       transform="matrix(0,1,-1,0,0,0)"><tspan
         sodipodi:role="line"
         id="tspan4817"
         x="4.6159668"
         y="-24.106201"
         style="font-size:7.5px">0</tspan></text>
    <path
       id="drill"
       style="fill:none;fill-rule:evenodd;stroke:#000000;stroke-width:1px;stroke-linecap:round;stroke-linejoin:miter;stroke-opacity:1"
       d="m 10,29.492879 10,0 m -10,0 c 0,5 1,6 1,6 m 2,-6 c 0,0 -2,5 -2,15 m 9,5 c 0,-5 -1,-6 -1,-6 m -2,6 c 0,0 2,-5 2,-15 m 1,-5 c 0,10 -10,10 -10,20 l 10,0"
       inkscape:connector-curvature="0" />
    <path
       id="path4224"
       style="fill:none;fill-rule:evenodd;stroke:#000000;stroke-width:1px;stroke-linecap:butt;stroke-linejoin:miter;stroke-opacity:1"
       d="m 25,50 0,25 M 5,50 5,75 M 0,55 5,50 m 20,0 5,0 m -30,0 5,0 m 25,5 -5,5 m 5,5 -5,5 M 5,60 0,65 m 5,5 -5.17678,5.176777"
       inkscape:connector-curvature="0"
       class="svg_path" />
    <path
       id="pocket_border_bottom_z"
       style="fill:none;fill-rule:evenodd;stroke:#000000;stroke-width:1px;stroke-linecap:butt;stroke-linejoin:miter;stroke-opacity:1"
       d="m 5,75 20,0 m 0,25 5,-5 m 0,-10 -5,5 m 0,0 -10,10 M 10.17677,74.823223 -0.17678,85.176777 M 30,75 5,100 M 20,75 0,95"
       inkscape:connector-curvature="0"
       class="svg_path" />
    <path
       id="path4153-9-6-0"
       style="fill:none;fill-rule:evenodd;stroke:#000000;stroke-width:0.5;stroke-linecap:butt;stroke-linejoin:miter;stroke-miterlimit:4;stroke-dasharray:none;stroke-opacity:1"
       d="M 23,75 23,5 m 0,70 -1,3 2,0 z"
       class="svg_path"
       inkscape:connector-curvature="0"
       sodipodi:nodetypes="cccccc" />
  </g>
</svg>
