<svg xmlns:rdf="http://www.w3.org/1999/02/22-rdf-syntax-ns#" xmlns="http://www.w3.org/2000/svg" version="1.1" xmlns:cc="http://creativecommons.org/ns#" xmlns:dc="http://purl.org/dc/elements/1.1/" viewBox="0 0 20 20">
 <g id="button_tan">
  <rect style="color-rendering:auto;color:#000000;shape-rendering:auto;solid-color:#000000;stroke:#000;fill:none;mix-blend-mode:normal;image-rendering:auto;isolation:auto" class="button_border" rx="1.9" height="19" width="19" y=".5" x=".5"/>
  <path class="button_text" style="stroke-width:.1" d="m12.859 6.5938c-0.60058 0.26855-1.0874 0.71484-1.4609 1.3398-0.37354 0.62256-0.56055 1.3135-0.56055 2.0703 0 0.51758 0.09668 1.0171 0.28711 1.498 0.19043 0.48096 0.46094 0.89795 0.8125 1.252 0.24658 0.24902 0.55322 0.4668 0.92188 0.65234v-0.13672c-0.24658-0.1709-0.4458-0.34912-0.59961-0.53711-0.15137-0.18799-0.27295-0.38477-0.36328-0.58984-0.09033-0.20264-0.16699-0.47168-0.23047-0.80859-0.08057-0.42725-0.12109-0.90332-0.12109-1.4258 0-0.48096 0.04736-0.94287 0.14258-1.3848 0.09521-0.44189 0.24072-0.80566 0.43359-1.0938 0.19287-0.28809 0.43799-0.51562 0.73828-0.68164v-0.1543zm3.6699 0v0.1543c0.24902 0.1709 0.4502 0.35107 0.60156 0.53906 0.15137 0.18799 0.271 0.3833 0.36133 0.58594 0.09277 0.20264 0.16943 0.47168 0.23047 0.80859 0.08057 0.42969 0.12109 0.90381 0.12109 1.4238 0 0.48096-0.04736 0.94434-0.14258 1.3887-0.09277 0.44189-0.23633 0.80615-0.43164 1.0918-0.19287 0.28809-0.43994 0.51514-0.74023 0.68359v0.13672c0.60303-0.26856 1.0898-0.71484 1.4609-1.3398 0.37354-0.62256 0.56055-1.3135 0.56055-2.0703 0-0.52002-0.09473-1.0195-0.28516-1.498-0.19-0.4818-0.459-0.9003-0.808-1.2567-0.247-0.249-0.557-0.4653-0.928-0.6484zm-14.058 0.7519c-0.1001 0.2466-0.1782 0.415-0.2344 0.5078-0.1098 0.1758-0.2353 0.3296-0.3769 0.459-0.1392 0.127-0.2759 0.2158-0.4102 0.2695v0.12109h0.53125v2.2559c0 0.2417 0.024903 0.42188 0.076172 0.53906 0.05127 0.11475 0.13086 0.2041 0.23828 0.26758 0.10742 0.06103 0.21777 0.0918 0.33008 0.0918 0.16602 0 0.32617-0.06006 0.48242-0.17969 0.15625-0.12207 0.27783-0.30371 0.36328-0.54297h-0.14258c-0.041504 0.09765-0.1001 0.17334-0.17578 0.22461-0.075684 0.04883-0.15381 0.07227-0.23438 0.07227-0.097656 0-0.17871-0.0376-0.24219-0.11328-0.061035-0.07568-0.091797-0.22217-0.091797-0.43945v-2.1758h0.7832v-0.25586h-0.7832v-1.1016h-0.11328zm2.6074 1.002c-0.38818 0-0.68945 0.087891-0.9043 0.26367-0.21484 0.17578-0.32227 0.37012-0.32227 0.58008 0 0.10986 0.027832 0.19629 0.083984 0.25977 0.058594 0.063477 0.13232 0.09375 0.22266 0.09375 0.092773 0 0.16846-0.028808 0.22461-0.089844 0.058594-0.061035 0.087891-0.14941 0.087891-0.26172l-0.00781-0.21094c0-0.10742 0.045898-0.2041 0.13867-0.28711 0.090332-0.083008 0.21338-0.12305 0.36719-0.12305 0.20264 0 0.35596 0.061035 0.46094 0.18555 0.10742 0.12451 0.16016 0.35498 0.16016 0.68945v0.13086c-0.5762 0.2099-0.9874 0.3886-1.2364 0.5348-0.24658 0.14648-0.42139 0.30274-0.52148 0.46875-0.073242 0.11963-0.10938 0.26221-0.10938 0.42578 0 0.25879 0.075684 0.46631 0.22461 0.625 0.15137 0.15869 0.34229 0.23828 0.57422 0.23828 0.14893 0 0.29004-0.03076 0.42188-0.0918 0.087891-0.0415 0.30225-0.19482 0.64648-0.46094 0.00244 0.2002 0.040527 0.34277 0.11133 0.42578 0.070801 0.08301 0.16553 0.12305 0.28516 0.12305 0.24902 0 0.50977-0.18262 0.7832-0.54883v-0.20508c-0.14648 0.14648-0.24561 0.23584-0.29688 0.26758-0.029297 0.01709-0.0625 0.02539-0.10156 0.02539-0.036621 0-0.070313-0.0127-0.099609-0.03711-0.026855-0.02441-0.046386-0.07178-0.058594-0.14258-0.012207-0.07324-0.017578-0.27002-0.017578-0.58984v-1.1387c0-0.32471-0.022461-0.53955-0.066406-0.64453-0.0684-0.1604-0.1743-0.2791-0.3184-0.3548-0.1904-0.1001-0.4345-0.1503-0.7324-0.1503zm2.7578 0-1.0117 0.41016 0.054687 0.13281c0.095215-0.036621 0.17773-0.054687 0.24609-0.054687 0.063476 0 0.11377 0.015137 0.15039 0.046875 0.039063 0.031738 0.066894 0.091797 0.083984 0.17969 0.019531 0.087891 0.029297 0.3335 0.029297 0.73633v1.2441c0 0.24414-0.030762 0.41016-0.091797 0.49805-0.058594 0.08545-0.17285 0.12891-0.34375 0.12891h-0.074219v0.13281h1.6602v-0.13281c-0.18311 0-0.30615-0.01513-0.36719-0.04687-0.058593-0.03418-0.10449-0.0874-0.13867-0.1582-0.026855-0.05371-0.039063-0.19482-0.039063-0.42188v-1.7676c0.28809-0.31738 0.57666-0.47656 0.86719-0.47656 0.18799 0 0.32031 0.069824 0.39844 0.20898 0.080566 0.13672 0.12109 0.35693 0.12109 0.66211v1.373c0 0.19287-0.00391 0.30908-0.013672 0.3457-0.024414 0.09277-0.069336 0.16211-0.13281 0.21094-0.061035 0.04639-0.16992 0.07031-0.32617 0.07031h-0.068359v0.13281h1.6582v-0.13281c-0.16114 0-0.27295-0.0166-0.33398-0.05078-0.05859-0.03418-0.1001-0.08155-0.12695-0.14258-0.03418-0.07568-0.052734-0.22119-0.052734-0.43359v-1.4316c0.0001-0.3028-0.0263-0.5274-0.08-0.6739-0.0781-0.21-0.1826-0.3589-0.3145-0.4492-0.1318-0.0928-0.2895-0.1406-0.4726-0.1406-0.35645 0-0.72998 0.2373-1.123 0.71094l-0.00195-0.71094h-0.15625zm6.5 0.14062-0.97852 0.17188v0.13086c0.07324-0.00488 0.13916-0.00586 0.19531-0.00586 0.17578 0 0.30811 0.031738 0.39844 0.097656s0.16455 0.1792 0.2207 0.33789c0.01221 0.03418 0.09277 0.34814 0.24414 0.94141-0.06104 0.13672-0.19092 0.3584-0.38867 0.66602s-0.354 0.50684-0.46875 0.59961c-0.04638 0.03906-0.08398 0.05859-0.11328 0.05859-0.03418 0-0.08301-0.02783-0.14648-0.08398-0.08789-0.07813-0.16992-0.11719-0.24805-0.11719-0.07812 0-0.14355 0.02637-0.19726 0.08008s-0.08203 0.12256-0.08203 0.20312c0 0.09033 0.0293 0.16113 0.08789 0.21484 0.08057 0.0708 0.16992 0.10547 0.26758 0.10547 0.13916 0 0.28272-0.05957 0.43164-0.18164 0.22949-0.19043 0.53516-0.61768 0.91602-1.2793 0.16114 0.7251 0.26709 1.1353 0.31836 1.2305 0.08057 0.15381 0.18945 0.23047 0.32617 0.23047 0.09277 0 0.20752-0.05274 0.3418-0.16016 0.23682-0.19043 0.43213-0.43066 0.58594-0.71875l-0.12891-0.06445c-0.09522 0.18066-0.20947 0.32715-0.34375 0.43945-0.06836 0.05615-0.12842 0.08398-0.17969 0.08398-0.03173 0-0.06396-0.01807-0.0957-0.05469-0.03174-0.03906-0.0708-0.15478-0.11719-0.34766l-0.3-1.2604c0.20996-0.36377 0.3916-0.60938 0.54297-0.73633 0.08057-0.068359 0.15039-0.10352 0.20898-0.10352 0.03906 0 0.11572 0.019531 0.23047 0.058594 0.0586 0.021973 0.1128 0.033203 0.16406 0.033203 0.08789-1e-7 0.16602-0.030762 0.23438-0.091797 0.03662-0.03418 0.05469-0.09668 0.05469-0.18945 0-0.080566-0.03028-0.14893-0.09375-0.20508-0.06104-0.056153-0.14502-0.083984-0.25-0.083984-0.0708 0-0.13477 0.010742-0.19336 0.035156-0.09277 0.039063-0.2002 0.11328-0.32227 0.2207-0.12207 0.10498-0.22705 0.21484-0.3125 0.33203l-0.323 0.4844c-0.1-0.3735-0.171-0.6035-0.215-0.6914-0.061-0.1269-0.151-0.2539-0.271-0.3808zm-8.7461 1.3145v1.2773c-0.30273 0.24414-0.54688 0.36719-0.73242 0.36719-0.13672 0-0.25635-0.05908-0.36133-0.17383-0.10498-0.11719-0.1582-0.26172-0.1582-0.4375 0-0.13916 0.041992-0.26758 0.125-0.38477s0.22119-0.23047 0.41406-0.33789c0.10742-0.06103 0.34424-0.16406 0.71289-0.31055z"/>
 </g>
</svg>
