<svg xmlns:rdf="http://www.w3.org/1999/02/22-rdf-syntax-ns#" xmlns="http://www.w3.org/2000/svg" version="1.1" xmlns:cc="http://creativecommons.org/ns#" xmlns:dc="http://purl.org/dc/elements/1.1/" viewBox="0 0 20 20">
 <g id="button_cos">
  <rect style="color-rendering:auto;color:#000000;shape-rendering:auto;solid-color:#000000;stroke:#000;fill:none;mix-blend-mode:normal;image-rendering:auto;isolation:auto" class="button_border" rx="1.9" height="19" width="19" y=".5" x=".5"/>
  <path class="button_text" style="stroke-width:.1" d="m13.186 6.5938c-0.60059 0.26855-1.0874 0.71484-1.4609 1.3398-0.37354 0.62256-0.56055 1.3135-0.56055 2.0703 0.000001 0.51758 0.09473 1.0171 0.28516 1.498 0.19043 0.48096 0.46289 0.89795 0.81445 1.252 0.24658 0.24902 0.55322 0.4668 0.92188 0.65234v-0.13672c-0.24658-0.1709-0.4458-0.34912-0.59961-0.53711-0.15137-0.18799-0.27295-0.38477-0.36328-0.58984-0.09033-0.20264-0.167-0.47168-0.23047-0.80859-0.08057-0.42725-0.12109-0.90332-0.12109-1.4258 0-0.48096 0.04736-0.94287 0.14258-1.3848 0.09521-0.44189 0.23877-0.80566 0.43164-1.0938 0.19287-0.28809 0.43994-0.51562 0.74024-0.68164v-0.1543zm3.6699 0v0.1543c0.24902 0.1709 0.4502 0.35107 0.60156 0.53906 0.15137 0.18799 0.271 0.3833 0.36133 0.58594 0.09277 0.20264 0.16943 0.47168 0.23047 0.80859 0.08057 0.42969 0.12109 0.90381 0.12109 1.4238 0 0.48096-0.04736 0.94434-0.14258 1.3887-0.09277 0.44189-0.23633 0.80615-0.43164 1.0918-0.19287 0.28808-0.43994 0.51514-0.74023 0.68359v0.13672c0.60303-0.26856 1.0898-0.71484 1.4609-1.3398 0.37354-0.62256 0.56055-1.3135 0.56055-2.0703 0-0.52002-0.09473-1.0195-0.28516-1.498-0.191-0.4818-0.462-0.9003-0.811-1.2567-0.246-0.249-0.554-0.4653-0.926-0.6484zm-14.133 1.7539c-0.43945 1e-7 -0.81592 0.16455-1.1309 0.49414-0.3125 0.32959-0.46875 0.75977-0.46875 1.2871 0 0.54443 0.14258 0.9751 0.42578 1.2949 0.2832 0.31982 0.61328 0.48047 0.99414 0.48047 0.31982 0 0.61328-0.11865 0.87695-0.35547 0.26367-0.23926 0.43896-0.57959 0.5293-1.0215l-0.1055-0.05c-0.127 0.295-0.2584 0.499-0.3926 0.611-0.1905 0.163-0.4033 0.246-0.6426 0.246-0.3345 0-0.6011-0.154-0.7988-0.459-0.1953-0.308-0.293-0.662-0.293-1.0625 0-0.3931 0.0991-0.708 0.2969-0.9473 0.1489-0.1806 0.3457-0.2714 0.5898-0.2714 0.15137 0 0.26807 0.036133 0.35352 0.10938 0.085449 0.075684 0.13428 0.18604 0.14648 0.33008 0.014648 0.14404 0.042481 0.2417 0.083984 0.29297 0.073242 0.092773 0.18213 0.13867 0.32617 0.13867 0.10742 0 0.19141-0.027832 0.25-0.083984 0.061035-0.058594 0.091797-0.13379 0.091797-0.22656 0-0.18799-0.10596-0.36963-0.31836-0.54297-0.2124-0.1759-0.4849-0.2637-0.8144-0.2637zm3.3437 0c-0.27832 0-0.54199 0.074219-0.79102 0.2207-0.24902 0.14404-0.44971 0.36865-0.60352 0.67383-0.15137 0.30273-0.22656 0.6084-0.22656 0.91602 0 0.42236 0.12549 0.80322 0.37695 1.1426 0.29785 0.40283 0.69971 0.60352 1.2051 0.60352 0.31006 0 0.59033-0.07813 0.8418-0.23438 0.25391-0.15625 0.45166-0.3877 0.5957-0.69531 0.14404-0.30762 0.2168-0.61182 0.2168-0.91211 0-0.42725-0.12939-0.80518-0.39062-1.1348-0.3076-0.3858-0.7168-0.5801-1.2246-0.5801zm3.2598 0c-0.30029 1e-7 -0.5459 0.09375-0.73633 0.2793-0.18799 0.18555-0.28125 0.41553-0.28125 0.69141 0 0.2124 0.054199 0.38818 0.16406 0.52734 0.10986 0.1416 0.34131 0.30078 0.69531 0.47656s0.58984 0.3208 0.70703 0.43555c0.11963 0.11475 0.17969 0.25732 0.17969 0.42578 0 0.13916-0.05274 0.25732-0.16016 0.35742-0.10498 0.09766-0.2417 0.14648-0.41016 0.14648-0.23926 0-0.45557-0.08643-0.64844-0.25977-0.1928-0.174-0.3242-0.43-0.3925-0.772h-0.12109v1.1973h0.12109c0.031738-0.06347 0.07666-0.0957 0.13281-0.0957 0.05127 0.000001 0.1167 0.0127 0.19727 0.03711 0.26367 0.07324 0.49805 0.10938 0.70312 0.10938 0.28564 0 0.54199-0.0918 0.77148-0.27734 0.23193-0.18799 0.34961-0.43506 0.34961-0.74023 0-0.39551-0.24854-0.71533-0.74414-0.95703l-0.5352-0.2593c-0.232-0.1123-0.3853-0.2182-0.461-0.3183-0.0781-0.0977-0.1172-0.2149-0.1172-0.3516 0-0.10986 0.053223-0.21045 0.1582-0.30078 0.10498-0.090332 0.24121-0.13477 0.41211-0.13477 0.22461 0 0.41064 0.063965 0.55469 0.19336 0.14648 0.12939 0.26465 0.37354 0.35742 0.73242h0.12109v-1.1426h-0.12109c-0.0293 0.058594-0.0542 0.098144-0.07617 0.11523-0.02197 0.01709-0.05274 0.025391-0.0918 0.025391-0.04151 0-0.12354-0.018066-0.24805-0.054687-0.1883-0.0561-0.349-0.0858-0.4808-0.0858zm5.3359 0.14062-0.97852 0.17188v0.13086c0.07324-0.00488 0.13916-0.00586 0.19531-0.00586 0.17578 0 0.30811 0.031738 0.39844 0.097656s0.1626 0.1792 0.21875 0.33789c0.01221 0.03418 0.09473 0.34814 0.24609 0.94141-0.06104 0.13672-0.19092 0.3584-0.38867 0.66602s-0.354 0.50684-0.46875 0.59961c-0.04638 0.03906-0.08398 0.05859-0.11328 0.05859-0.03418 0-0.08301-0.02783-0.14648-0.08398-0.08789-0.07813-0.16992-0.11719-0.24805-0.11719-0.07812 0-0.1455 0.02637-0.19922 0.08008-0.05371 0.05371-0.08008 0.12061-0.08008 0.20117 0 0.09033 0.0293 0.16308 0.08789 0.2168 0.08057 0.0708 0.16992 0.10547 0.26758 0.10547 0.13916 0 0.28272-0.05957 0.43164-0.18164 0.22949-0.19043 0.53516-0.61768 0.91602-1.2793 0.16114 0.7251 0.26709 1.1353 0.31836 1.2305 0.08057 0.15381 0.18945 0.23047 0.32617 0.23047 0.09277 0 0.20557-0.05274 0.33984-0.16016 0.23682-0.19043 0.43213-0.43066 0.58594-0.71875l-0.12695-0.06445c-0.09521 0.18066-0.20947 0.32715-0.34375 0.43945-0.06836 0.05615-0.12842 0.08398-0.17969 0.08398-0.03173 0-0.06396-0.01807-0.0957-0.05469-0.03174-0.03906-0.0708-0.15478-0.11719-0.34766l-0.3-1.2604c0.21-0.3637 0.392-0.6093 0.543-0.7363 0.08057-0.068359 0.15039-0.10352 0.20898-0.10352 0.03906 0 0.11572 0.019531 0.23047 0.058594 0.05859 0.021973 0.11279 0.033203 0.16406 0.033203 0.08789-1e-7 0.16602-0.030762 0.23438-0.091797 0.03662-0.03418 0.05469-0.09668 0.05469-0.18945 0-0.080566-0.03028-0.14893-0.09375-0.20508-0.06104-0.056153-0.14502-0.083984-0.25-0.083984-0.0708 0-0.13477 0.010742-0.19336 0.035156-0.09277 0.039063-0.2002 0.11328-0.32227 0.2207-0.12207 0.10498-0.22705 0.21484-0.3125 0.33203l-0.323 0.4843c-0.1-0.3735-0.17-0.6035-0.214-0.6914-0.061-0.1269-0.152-0.2539-0.272-0.3808zm-8.709 0.097656c0.26855 0 0.48877 0.11719 0.66211 0.35156 0.25635 0.3418 0.38477 0.81055 0.38477 1.4063 0 0.47608-0.07666 0.8125-0.23047 1.0078-0.15381 0.19531-0.34912 0.29297-0.58594 0.29297-0.31738 0-0.57227-0.17725-0.76758-0.53125-0.1928-0.354-0.2909-0.775-0.2909-1.2634 0-0.30273 0.040527-0.55127 0.12109-0.74414 0.0806-0.1929 0.1851-0.3267 0.3144-0.4024 0.1319-0.0781 0.2632-0.1172 0.3926-0.1172z"/>
 </g>
</svg>
