<svg xmlns:rdf="http://www.w3.org/1999/02/22-rdf-syntax-ns#" xmlns="http://www.w3.org/2000/svg" version="1.1" xmlns:cc="http://creativecommons.org/ns#" xmlns:dc="http://purl.org/dc/elements/1.1/" viewBox="0 0 20 20">
 <g id="button_pocket">
  <rect style="color-rendering:auto;color:#000000;shape-rendering:auto;solid-color:#000000;mix-blend-mode:normal;image-rendering:auto;isolation:auto" class="button_border" rx="1.9" height="19" width="19" y=".5" x=".5"/>
  <path class="button_path" style="stroke-width:.5" d="m7 2-2 2m4 9 2 1-2 1m-3.75-11h9.5c0.692 0 1.25 0.5575 1.25 1.25v9.5c0 0.692-0.558 1.25-1.25 1.25h-9.5c-0.6925 0-1.25-0.558-1.25-1.25v-9.5c0-0.6925 0.5575-1.25 1.25-1.25zm8.75 8v-6h-8v8h5m4 0a1 1 0 0 1 -1 1 1 1 0 0 1 -1 -1 1 1 0 0 1 1 -1 1 1 0 0 1 1 1zm-13-1 2-2m-2 5 2-2m-1 4 2-2m1 2 2-2m1 2 2-2m1 2 2-2m4-1-3 3m1-4 2-2m-2-1 2-2m-2-1 2-2m0-3-2 2m0-3-2 2m-1-2-2 2m-7 4-2 2m8-8-2 2m-4 1-2 2m2-5-2 2"/>
 </g>
</svg>
