<svg xmlns:rdf="http://www.w3.org/1999/02/22-rdf-syntax-ns#" xmlns="http://www.w3.org/2000/svg" version="1.1" xmlns:cc="http://creativecommons.org/ns#" xmlns:dc="http://purl.org/dc/elements/1.1/" viewBox="0 0 20 20">
 <g id="button_sqrt">
  <rect style="color-rendering:auto;color:#000000;shape-rendering:auto;solid-color:#000000;stroke:#000;fill:none;mix-blend-mode:normal;image-rendering:auto;isolation:auto" class="button_border" rx="1.9" height="19" width="19" y=".5" x=".5"/>
  <path style="stroke:#000;fill:none" d="m3 11h2l2 4 2-11h8" class="button_path"/>
  <path class="button_path" style="stroke-width:.1" d="m12.08 7.6973q0.28711 0.30469 0.43359 0.60938 0.10547 0.21094 0.3457 1.1074l0.516-0.7735q0.20508-0.28125 0.49805-0.5332 0.29297-0.25781 0.51562-0.35156 0.14062-0.058594 0.31055-0.058594 0.25195 0 0.39844 0.13477 0.152 0.1348 0.152 0.3282 0 0.22266-0.08789 0.30469-0.16406 0.14648-0.375 0.14648-0.12305 0-0.26367-0.052734-0.27539-0.09375-0.36914-0.09375-0.14062 0-0.33398 0.16406-0.36328 0.30469-0.86719 1.1777l0.48047 2.0156q0.11133 0.46289 0.1875 0.55664 0.07617 0.08789 0.15234 0.08789 0.12305 0 0.28711-0.13477 0.32227-0.26953 0.55078-0.70312l0.20508 0.10547q-0.36914 0.69141-0.9375 1.1484-0.32226 0.25781-0.54492 0.25781-0.32812 0-0.52148-0.36914-0.12305-0.22852-0.50977-1.9688-0.91406 1.5879-1.4648 2.0449-0.35742 0.29297-0.69141 0.29297-0.23437 0-0.42773-0.16992-0.1403-0.128-0.1403-0.345 0-0.19336 0.12891-0.32227t0.31641-0.12891 0.39844 0.1875q0.15234 0.13477 0.23438 0.13477 0.07031 0 0.18164-0.09375 0.27539-0.22266 0.75-0.96094 0.474-0.738 0.621-1.066-0.363-1.4238-0.393-1.5059-0.134-0.3808-0.351-0.539t-0.639-0.1582q-0.13477 0-0.31055 0.011719v-0.21094l1.5645-0.27539z"/>
 </g>
</svg>
