<svg xmlns:rdf="http://www.w3.org/1999/02/22-rdf-syntax-ns#" xmlns="http://www.w3.org/2000/svg" version="1.1" xmlns:cc="http://creativecommons.org/ns#" xmlns:dc="http://purl.org/dc/elements/1.1/" viewBox="0 0 100 100">
 <g id="pocket">
  <path id="drill" class="svg_path" style="stroke-width:.5;fill:none" d="m15 75h20m-10-10v20m5-10a5 5 0 0 1 -5 5 5 5 0 0 1 -5 -5 5 5 0 0 1 5 -5 5 5 0 0 1 5 5z"/>
  <path style="stroke-dasharray:1, 1;stroke-width:.5" d="m75 25h-50v50h50z" class="svg_path"/>
  <text id="dist_bottom" style="letter-spacing:0px;font-size:7.5px;word-spacing:0px;font-family:sans-serif;line-height:125%" xml:space="preserve" class="svg_text" y="83.893799" x="50.615967"><tspan x="50.615967" style="font-size:7.5px" y="83.893799">0</tspan></text>
  <text id="dist_top" style="font-size:7.5px;letter-spacing:0px;text-anchor:end;word-spacing:0px;text-align:end;font-family:sans-serif;line-height:125%" xml:space="preserve" class="svg_text" y="21.566406" x="50.615967"><tspan x="50.615967" style="font-size:7.5px;text-anchor:start;text-align:start" y="21.566406">0</tspan></text>
  <text id="dist_left" style="font-size:7.5px;letter-spacing:0px;text-anchor:end;word-spacing:0px;text-align:end;font-family:sans-serif;line-height:125%" xml:space="preserve" class="svg_text" y="48.893799" x="22.391357"><tspan x="22.391357" style="font-size:7.5px;text-anchor:end;text-align:end" y="48.893799">0</tspan></text>
  <text id="dist_right" style="font-size:7.5px;letter-spacing:0px;text-anchor:end;word-spacing:0px;text-align:end;font-family:sans-serif;line-height:125%" xml:space="preserve" class="svg_text" y="56.566406" x="77.615967"><tspan x="77.615967" style="font-size:7.5px;text-anchor:start;text-align:start" y="56.566406">0</tspan></text>
  <path style="stroke-width:.5" d="m49 33 1-3 1 3zm1-3v-15m0 55-1-3h2zm0 15v-15m-20-20 3-1v2zm-15 0h15m40 0-3-1v2zm15 0h-15"/>
  <path id="contour_border_top" style="stroke-width:1px" d="m65 30-5 5m0-5-5 5m0-5-5 5m0-5-5 5m0-5-5 5m0-5-5 5m-5-5h40"/>
  <path id="contour_border_bottom" style="stroke-width:1px" d="m40 65-5 5m10-5-5 5m10-5-5 5m10-5-5 5m10-5-5 5m10-5-5 5m-30 0h40"/>
  <path class="svg_path" style="stroke-width:1px" d="m70 65-5 5m-30-5-5 5m40-40-5 5m-30-5-5 5"/>
  <path id="contour_border_right" style="stroke-width:1px" d="m65 55 5-5m0-5-5 5m0 10 5-5m0-15-5 5m0 20 5-5m0-25-5 5m5-10v40"/>
  <path id="contour_border_left" style="stroke-width:1px" d="m30 65 5-5m-5 0 5-5m-5 0 5-5m-5 0 5-5m0-5-5 5m5-10-5 5m0-10v40"/>
 </g>
</svg>
