<svg xmlns:rdf="http://www.w3.org/1999/02/22-rdf-syntax-ns#" xmlns="http://www.w3.org/2000/svg" height="20mm" width="20mm" version="1.1" xmlns:cc="http://creativecommons.org/ns#" xmlns:dc="http://purl.org/dc/elements/1.1/" viewBox="0 0 70.866142 70.866141">
<defs>
 <g id="button_empty">
  <rect style="color-rendering:auto;color:#000000;shape-rendering:auto;solid-color:#000000;mix-blend-mode:normal;image-rendering:auto;isolation:auto" class="button_border" rx="1.9" height="19" width="19" y=".5" x=".5"/>
 </g>
 <g id="button_left">
  <rect style="color-rendering:auto;color:#000000;shape-rendering:auto;solid-color:#000000;mix-blend-mode:normal;image-rendering:auto;isolation:auto" class="button_border" rx="1.9" height="19" width="19" y=".5" x=".5"/>
  <path style="" d="m8 4-4 6 4 6v-3h8v-6l-8-1e-7z" class="button_path"/>
 </g>
 <g id="button_right">
  <rect style="color-rendering:auto;color:#000000;shape-rendering:auto;solid-color:#000000;mix-blend-mode:normal;image-rendering:auto;isolation:auto" class="button_border" rx="1.9" height="19" width="19" y=".5" x=".5"/>
  <path style="" d="m11.899 4 4 6-4 6v-3h-8v-6l8-1e-7z" class="button_path"/>
 </g>
 <g id="button_sqrt">
  <rect style="color-rendering:auto;color:#000000;shape-rendering:auto;solid-color:#000000;mix-blend-mode:normal;image-rendering:auto;isolation:auto" class="button_border" rx="1.9" height="19" width="19" y=".5" x=".5"/>
  <path style="" d="m3 11h2l2 4 2-11h8" class="button_path"/>
  <path class="button_text" style="stroke-width:.1" d="m12.08 7.6973q0.28711 0.30469 0.43359 0.60938 0.10547 0.21094 0.3457 1.1074l0.516-0.7735q0.20508-0.28125 0.49805-0.5332 0.29297-0.25781 0.51562-0.35156 0.14062-0.058594 0.31055-0.058594 0.25195 0 0.39844 0.13477 0.152 0.1348 0.152 0.3282 0 0.22266-0.08789 0.30469-0.16406 0.14648-0.375 0.14648-0.12305 0-0.26367-0.052734-0.27539-0.09375-0.36914-0.09375-0.14062 0-0.33398 0.16406-0.36328 0.30469-0.86719 1.1777l0.48047 2.0156q0.11133 0.46289 0.1875 0.55664 0.07617 0.08789 0.15234 0.08789 0.12305 0 0.28711-0.13477 0.32227-0.26953 0.55078-0.70312l0.20508 0.10547q-0.36914 0.69141-0.9375 1.1484-0.32226 0.25781-0.54492 0.25781-0.32812 0-0.52148-0.36914-0.12305-0.22852-0.50977-1.9688-0.91406 1.5879-1.4648 2.0449-0.35742 0.29297-0.69141 0.29297-0.23437 0-0.42773-0.16992-0.1403-0.128-0.1403-0.345 0-0.19336 0.12891-0.32227t0.31641-0.12891 0.39844 0.1875q0.15234 0.13477 0.23438 0.13477 0.07031 0 0.18164-0.09375 0.27539-0.22266 0.75-0.96094 0.474-0.738 0.621-1.066-0.363-1.4238-0.393-1.5059-0.134-0.3808-0.351-0.539t-0.639-0.1582q-0.13477 0-0.31055 0.011719v-0.21094l1.5645-0.27539z"/>
 </g>
 <g id="button_sin">
  <rect style="color-rendering:auto;color:#000000;shape-rendering:auto;solid-color:#000000;mix-blend-mode:normal;image-rendering:auto;isolation:auto" class="button_border" rx="1.9" height="19" width="19" y=".5" x=".5"/>
  <path class="button_text" style="stroke-width:.1" d="m5.4375 6.5938c-0.10498 0-0.19434 0.038086-0.26758 0.11133-0.070801 0.070801-0.10547 0.15723-0.10547 0.25977s0.036133 0.19043 0.10938 0.26367c0.073242 0.073242 0.16113 0.10938 0.26367 0.10938s0.18896-0.036133 0.25977-0.10938c0.073242-0.073242 0.10938-0.16113 0.10938-0.26367s-0.036133-0.18896-0.10938-0.25977c-0.0708-0.0733-0.1573-0.1113-0.2598-0.1113zm7.0703 0c-0.60059 0.26855-1.0874 0.71484-1.4609 1.3398-0.37354 0.62256-0.56055 1.3135-0.56055 2.0703 0 0.51758 0.09668 1.0171 0.28711 1.498 0.19043 0.48096 0.46094 0.89795 0.8125 1.252 0.24658 0.24902 0.55322 0.4668 0.92187 0.65234v-0.13672c-0.24658-0.1709-0.4458-0.34912-0.59961-0.53711-0.15137-0.18799-0.27295-0.38477-0.36328-0.58984-0.09033-0.20264-0.167-0.47168-0.23047-0.80859-0.08057-0.42725-0.12109-0.90332-0.12109-1.4258 0-0.48096 0.04736-0.94287 0.14258-1.3848 0.09521-0.44189 0.24072-0.80566 0.43359-1.0938 0.19287-0.28809 0.43799-0.51562 0.73828-0.68164v-0.1543zm3.6699 0v0.1543c0.24902 0.1709 0.4502 0.35107 0.60156 0.53906 0.15137 0.18799 0.271 0.3833 0.36133 0.58594 0.09277 0.20264 0.16943 0.47168 0.23047 0.80859 0.08057 0.42969 0.12109 0.90381 0.12109 1.4238 0 0.48096-0.04736 0.94434-0.14258 1.3887-0.09277 0.44189-0.23633 0.80615-0.43164 1.0918-0.19287 0.28809-0.43994 0.51514-0.74024 0.68359v0.13672c0.60303-0.26856 1.0898-0.71484 1.4609-1.3398 0.37354-0.62256 0.56055-1.3135 0.56055-2.0703 0-0.52002-0.09473-1.0195-0.28516-1.498-0.19-0.4818-0.461-0.9003-0.81-1.2567-0.247-0.249-0.555-0.4653-0.926-0.6484zm-13.36 1.7539c-0.30029 1e-7 -0.5459 0.09375-0.73633 0.2793-0.18799 0.18555-0.28125 0.41553-0.28125 0.69141 0 0.2124 0.054199 0.38818 0.16406 0.52734 0.10986 0.1416 0.34131 0.30078 0.69531 0.47656s0.58984 0.3208 0.70703 0.43555c0.11963 0.11475 0.17969 0.25732 0.17969 0.42578 0 0.13916-0.052734 0.25732-0.16016 0.35742-0.105 0.098-0.2417 0.147-0.4101 0.147-0.2393 0-0.4556-0.087-0.6485-0.26-0.1928-0.174-0.3242-0.43-0.3926-0.772h-0.12109v1.1973h0.12109c0.031738-0.06347 0.07666-0.0957 0.13281-0.0957 0.05127 0.000001 0.1167 0.0127 0.19727 0.03711 0.26367 0.07324 0.49805 0.10938 0.70312 0.10938 0.28564 0 0.54395-0.0918 0.77344-0.27734 0.23193-0.18799 0.34766-0.43506 0.34766-0.74023 0-0.39551-0.24854-0.71533-0.74414-0.95703l-0.5352-0.2593c-0.2319-0.1123-0.3852-0.2182-0.4609-0.3183-0.0781-0.0977-0.1172-0.2149-0.1172-0.3516 0-0.10986 0.053223-0.21045 0.1582-0.30078 0.10498-0.090332 0.24316-0.13477 0.41406-0.13477 0.22461 0 0.40869 0.063965 0.55273 0.19336 0.14648 0.12939 0.26465 0.37354 0.35742 0.73242h0.12109v-1.1426h-0.12109c-0.029297 0.058594-0.054199 0.098144-0.076172 0.11523-0.021973 0.01709-0.052734 0.025391-0.091797 0.025391-0.041504 0-0.12354-0.018066-0.24805-0.054687-0.18799-0.056153-0.34863-0.085938-0.48047-0.085938zm2.7617 0-1.0117 0.41016 0.052734 0.13281c0.097656-0.036621 0.17969-0.054687 0.24805-0.054687 0.063476 0 0.11377 0.015137 0.15039 0.046875 0.036621 0.029297 0.062988 0.083984 0.080078 0.16211 0.022 0.1073 0.0332 0.3412 0.0332 0.705v1.293c0 0.20752-0.016601 0.34863-0.050781 0.42188-0.031738 0.07324-0.07666 0.12646-0.13281 0.1582-0.056152 0.03174-0.16455 0.04687-0.32812 0.04687v0.13281h1.6289v-0.13281c-0.15869 0-0.26904-0.0166-0.33008-0.05078-0.058594-0.03418-0.10303-0.08594-0.13477-0.1543-0.029297-0.0708-0.044922-0.21191-0.044922-0.42188v-2.6953h-0.16016zm1.9043 0-1.0117 0.41016 0.054688 0.13281c0.095215-0.036621 0.17773-0.054687 0.24609-0.054687 0.063476 0 0.11377 0.015137 0.15039 0.046875 0.039063 0.031738 0.066894 0.091797 0.083984 0.17969 0.019531 0.087891 0.029297 0.3335 0.029297 0.73633v1.2441c0 0.24414-0.030762 0.41016-0.091797 0.49805-0.058594 0.08545-0.17285 0.12891-0.34375 0.12891h-0.074219v0.13281h1.6602v-0.13281c-0.18311 0-0.30615-0.01513-0.36719-0.04687-0.058593-0.03418-0.10449-0.0874-0.13867-0.1582-0.026855-0.05371-0.041016-0.19482-0.041016-0.42188v-1.7676c0.28809-0.31739 0.57861-0.47657 0.86914-0.47657 0.18799 0 0.32031 0.069824 0.39844 0.20898 0.080566 0.13672 0.12109 0.35693 0.12109 0.66211v1.373c0 0.19287-0.00391 0.30908-0.013672 0.3457-0.024414 0.09277-0.069336 0.16211-0.13281 0.21094-0.061035 0.04639-0.16992 0.07031-0.32617 0.07031h-0.068359v0.13281h1.6582v-0.13281c-0.16113 0-0.27295-0.0166-0.33398-0.05078-0.058594-0.03418-0.1001-0.08155-0.12695-0.14258-0.03418-0.07568-0.052734-0.22119-0.052734-0.43359v-1.4316c-0.0005-0.3028-0.0269-0.5274-0.0806-0.6739-0.0781-0.21-0.1826-0.3589-0.3144-0.4492-0.1319-0.0928-0.2896-0.1406-0.4727-0.1406-0.35645 0-0.72998 0.2373-1.123 0.71094l-0.00195-0.71094h-0.15625zm6.5 0.14062-0.97852 0.17188v0.13086c0.07324-0.00488 0.13916-0.00586 0.19531-0.00586 0.17578 0 0.3081 0.031738 0.39844 0.097656 0.09033 0.065918 0.16455 0.1792 0.2207 0.33789 0.01221 0.03418 0.09277 0.34814 0.24414 0.94141-0.06104 0.13672-0.18896 0.3584-0.38672 0.66602-0.19775 0.30762-0.354 0.50684-0.46875 0.59961-0.04638 0.03906-0.08593 0.05859-0.11523 0.05859-0.03418 0-0.08301-0.02783-0.14648-0.08398-0.08789-0.07813-0.16992-0.11719-0.24805-0.11719-0.07812 0-0.14355 0.02637-0.19727 0.08008-0.05371 0.05371-0.08203 0.12061-0.08203 0.20117 0 0.09033 0.0293 0.16308 0.08789 0.2168 0.08057 0.0708 0.16992 0.10547 0.26758 0.10547 0.13916 0 0.28467-0.05957 0.43359-0.18164 0.22949-0.19043 0.5332-0.61768 0.91406-1.2793 0.16113 0.7251 0.26709 1.1353 0.31836 1.2305 0.08057 0.15381 0.18945 0.23047 0.32617 0.23047 0.09277 0 0.20752-0.05274 0.3418-0.16016 0.23682-0.19043 0.43213-0.43066 0.58594-0.71875l-0.12891-0.06445c-0.09521 0.18066-0.20947 0.32715-0.34375 0.43945-0.06836 0.05615-0.12842 0.08398-0.17969 0.08398-0.03174 0-0.06396-0.01807-0.0957-0.05469-0.03174-0.03906-0.0708-0.15478-0.11719-0.34766l-0.3-1.2604c0.20996-0.36377 0.3916-0.60938 0.54297-0.73633 0.08057-0.068359 0.15039-0.10352 0.20898-0.10352 0.03906 0 0.11572 0.019531 0.23047 0.058594 0.05859 0.021973 0.11279 0.033203 0.16406 0.033203 0.08789-1e-7 0.16602-0.030762 0.23438-0.091797 0.03662-0.03418 0.05469-0.09668 0.05469-0.18945 0-0.080566-0.03028-0.14893-0.09375-0.20508-0.06103-0.056153-0.14502-0.083984-0.25-0.083984-0.0708 0-0.13477 0.010742-0.19336 0.035156-0.09277 0.039063-0.2002 0.11328-0.32226 0.2207-0.12207 0.10498-0.22705 0.21484-0.3125 0.33203l-0.322 0.4844c-0.1-0.3735-0.171-0.6035-0.215-0.6914-0.061-0.1269-0.152-0.2539-0.272-0.3808z"/>
 </g>
 <g id="button_cos">
  <rect style="color-rendering:auto;color:#000000;shape-rendering:auto;solid-color:#000000;mix-blend-mode:normal;image-rendering:auto;isolation:auto" class="button_border" rx="1.9" height="19" width="19" y=".5" x=".5"/>
  <path class="button_text" style="stroke-width:.1" d="m13.186 6.5938c-0.60059 0.26855-1.0874 0.71484-1.4609 1.3398-0.37354 0.62256-0.56055 1.3135-0.56055 2.0703 0.000001 0.51758 0.09473 1.0171 0.28516 1.498 0.19043 0.48096 0.46289 0.89795 0.81445 1.252 0.24658 0.24902 0.55322 0.4668 0.92188 0.65234v-0.13672c-0.24658-0.1709-0.4458-0.34912-0.59961-0.53711-0.15137-0.18799-0.27295-0.38477-0.36328-0.58984-0.09033-0.20264-0.167-0.47168-0.23047-0.80859-0.08057-0.42725-0.12109-0.90332-0.12109-1.4258 0-0.48096 0.04736-0.94287 0.14258-1.3848 0.09521-0.44189 0.23877-0.80566 0.43164-1.0938 0.19287-0.28809 0.43994-0.51562 0.74024-0.68164v-0.1543zm3.6699 0v0.1543c0.24902 0.1709 0.4502 0.35107 0.60156 0.53906 0.15137 0.18799 0.271 0.3833 0.36133 0.58594 0.09277 0.20264 0.16943 0.47168 0.23047 0.80859 0.08057 0.42969 0.12109 0.90381 0.12109 1.4238 0 0.48096-0.04736 0.94434-0.14258 1.3887-0.09277 0.44189-0.23633 0.80615-0.43164 1.0918-0.19287 0.28808-0.43994 0.51514-0.74023 0.68359v0.13672c0.60303-0.26856 1.0898-0.71484 1.4609-1.3398 0.37354-0.62256 0.56055-1.3135 0.56055-2.0703 0-0.52002-0.09473-1.0195-0.28516-1.498-0.191-0.4818-0.462-0.9003-0.811-1.2567-0.246-0.249-0.554-0.4653-0.926-0.6484zm-14.133 1.7539c-0.43945 1e-7 -0.81592 0.16455-1.1309 0.49414-0.3125 0.32959-0.46875 0.75977-0.46875 1.2871 0 0.54443 0.14258 0.9751 0.42578 1.2949 0.2832 0.31982 0.61328 0.48047 0.99414 0.48047 0.31982 0 0.61328-0.11865 0.87695-0.35547 0.26367-0.23926 0.43896-0.57959 0.5293-1.0215l-0.1055-0.05c-0.127 0.295-0.2584 0.499-0.3926 0.611-0.1905 0.163-0.4033 0.246-0.6426 0.246-0.3345 0-0.6011-0.154-0.7988-0.459-0.1953-0.308-0.293-0.662-0.293-1.0625 0-0.3931 0.0991-0.708 0.2969-0.9473 0.1489-0.1806 0.3457-0.2714 0.5898-0.2714 0.15137 0 0.26807 0.036133 0.35352 0.10938 0.085449 0.075684 0.13428 0.18604 0.14648 0.33008 0.014648 0.14404 0.042481 0.2417 0.083984 0.29297 0.073242 0.092773 0.18213 0.13867 0.32617 0.13867 0.10742 0 0.19141-0.027832 0.25-0.083984 0.061035-0.058594 0.091797-0.13379 0.091797-0.22656 0-0.18799-0.10596-0.36963-0.31836-0.54297-0.2124-0.1759-0.4849-0.2637-0.8144-0.2637zm3.3437 0c-0.27832 0-0.54199 0.074219-0.79102 0.2207-0.24902 0.14404-0.44971 0.36865-0.60352 0.67383-0.15137 0.30273-0.22656 0.6084-0.22656 0.91602 0 0.42236 0.12549 0.80322 0.37695 1.1426 0.29785 0.40283 0.69971 0.60352 1.2051 0.60352 0.31006 0 0.59033-0.07813 0.8418-0.23438 0.25391-0.15625 0.45166-0.3877 0.5957-0.69531 0.14404-0.30762 0.2168-0.61182 0.2168-0.91211 0-0.42725-0.12939-0.80518-0.39062-1.1348-0.3076-0.3858-0.7168-0.5801-1.2246-0.5801zm3.2598 0c-0.30029 1e-7 -0.5459 0.09375-0.73633 0.2793-0.18799 0.18555-0.28125 0.41553-0.28125 0.69141 0 0.2124 0.054199 0.38818 0.16406 0.52734 0.10986 0.1416 0.34131 0.30078 0.69531 0.47656s0.58984 0.3208 0.70703 0.43555c0.11963 0.11475 0.17969 0.25732 0.17969 0.42578 0 0.13916-0.05274 0.25732-0.16016 0.35742-0.10498 0.09766-0.2417 0.14648-0.41016 0.14648-0.23926 0-0.45557-0.08643-0.64844-0.25977-0.1928-0.174-0.3242-0.43-0.3925-0.772h-0.12109v1.1973h0.12109c0.031738-0.06347 0.07666-0.0957 0.13281-0.0957 0.05127 0.000001 0.1167 0.0127 0.19727 0.03711 0.26367 0.07324 0.49805 0.10938 0.70312 0.10938 0.28564 0 0.54199-0.0918 0.77148-0.27734 0.23193-0.18799 0.34961-0.43506 0.34961-0.74023 0-0.39551-0.24854-0.71533-0.74414-0.95703l-0.5352-0.2593c-0.232-0.1123-0.3853-0.2182-0.461-0.3183-0.0781-0.0977-0.1172-0.2149-0.1172-0.3516 0-0.10986 0.053223-0.21045 0.1582-0.30078 0.10498-0.090332 0.24121-0.13477 0.41211-0.13477 0.22461 0 0.41064 0.063965 0.55469 0.19336 0.14648 0.12939 0.26465 0.37354 0.35742 0.73242h0.12109v-1.1426h-0.12109c-0.0293 0.058594-0.0542 0.098144-0.07617 0.11523-0.02197 0.01709-0.05274 0.025391-0.0918 0.025391-0.04151 0-0.12354-0.018066-0.24805-0.054687-0.1883-0.0561-0.349-0.0858-0.4808-0.0858zm5.3359 0.14062-0.97852 0.17188v0.13086c0.07324-0.00488 0.13916-0.00586 0.19531-0.00586 0.17578 0 0.30811 0.031738 0.39844 0.097656s0.1626 0.1792 0.21875 0.33789c0.01221 0.03418 0.09473 0.34814 0.24609 0.94141-0.06104 0.13672-0.19092 0.3584-0.38867 0.66602s-0.354 0.50684-0.46875 0.59961c-0.04638 0.03906-0.08398 0.05859-0.11328 0.05859-0.03418 0-0.08301-0.02783-0.14648-0.08398-0.08789-0.07813-0.16992-0.11719-0.24805-0.11719-0.07812 0-0.1455 0.02637-0.19922 0.08008-0.05371 0.05371-0.08008 0.12061-0.08008 0.20117 0 0.09033 0.0293 0.16308 0.08789 0.2168 0.08057 0.0708 0.16992 0.10547 0.26758 0.10547 0.13916 0 0.28272-0.05957 0.43164-0.18164 0.22949-0.19043 0.53516-0.61768 0.91602-1.2793 0.16114 0.7251 0.26709 1.1353 0.31836 1.2305 0.08057 0.15381 0.18945 0.23047 0.32617 0.23047 0.09277 0 0.20557-0.05274 0.33984-0.16016 0.23682-0.19043 0.43213-0.43066 0.58594-0.71875l-0.12695-0.06445c-0.09521 0.18066-0.20947 0.32715-0.34375 0.43945-0.06836 0.05615-0.12842 0.08398-0.17969 0.08398-0.03173 0-0.06396-0.01807-0.0957-0.05469-0.03174-0.03906-0.0708-0.15478-0.11719-0.34766l-0.3-1.2604c0.21-0.3637 0.392-0.6093 0.543-0.7363 0.08057-0.068359 0.15039-0.10352 0.20898-0.10352 0.03906 0 0.11572 0.019531 0.23047 0.058594 0.05859 0.021973 0.11279 0.033203 0.16406 0.033203 0.08789-1e-7 0.16602-0.030762 0.23438-0.091797 0.03662-0.03418 0.05469-0.09668 0.05469-0.18945 0-0.080566-0.03028-0.14893-0.09375-0.20508-0.06104-0.056153-0.14502-0.083984-0.25-0.083984-0.0708 0-0.13477 0.010742-0.19336 0.035156-0.09277 0.039063-0.2002 0.11328-0.32227 0.2207-0.12207 0.10498-0.22705 0.21484-0.3125 0.33203l-0.323 0.4843c-0.1-0.3735-0.17-0.6035-0.214-0.6914-0.061-0.1269-0.152-0.2539-0.272-0.3808zm-8.709 0.097656c0.26855 0 0.48877 0.11719 0.66211 0.35156 0.25635 0.3418 0.38477 0.81055 0.38477 1.4063 0 0.47608-0.07666 0.8125-0.23047 1.0078-0.15381 0.19531-0.34912 0.29297-0.58594 0.29297-0.31738 0-0.57227-0.17725-0.76758-0.53125-0.1928-0.354-0.2909-0.775-0.2909-1.2634 0-0.30273 0.040527-0.55127 0.12109-0.74414 0.0806-0.1929 0.1851-0.3267 0.3144-0.4024 0.1319-0.0781 0.2632-0.1172 0.3926-0.1172z"/>
 </g>
 <g id="button_tan">
  <rect style="color-rendering:auto;color:#000000;shape-rendering:auto;solid-color:#000000;mix-blend-mode:normal;image-rendering:auto;isolation:auto" class="button_border" rx="1.9" height="19" width="19" y=".5" x=".5"/>
  <path class="button_text" style="stroke-width:.1" d="m12.859 6.5938c-0.60058 0.26855-1.0874 0.71484-1.4609 1.3398-0.37354 0.62256-0.56055 1.3135-0.56055 2.0703 0 0.51758 0.09668 1.0171 0.28711 1.498 0.19043 0.48096 0.46094 0.89795 0.8125 1.252 0.24658 0.24902 0.55322 0.4668 0.92188 0.65234v-0.13672c-0.24658-0.1709-0.4458-0.34912-0.59961-0.53711-0.15137-0.18799-0.27295-0.38477-0.36328-0.58984-0.09033-0.20264-0.16699-0.47168-0.23047-0.80859-0.08057-0.42725-0.12109-0.90332-0.12109-1.4258 0-0.48096 0.04736-0.94287 0.14258-1.3848 0.09521-0.44189 0.24072-0.80566 0.43359-1.0938 0.19287-0.28809 0.43799-0.51562 0.73828-0.68164v-0.1543zm3.6699 0v0.1543c0.24902 0.1709 0.4502 0.35107 0.60156 0.53906 0.15137 0.18799 0.271 0.3833 0.36133 0.58594 0.09277 0.20264 0.16943 0.47168 0.23047 0.80859 0.08057 0.42969 0.12109 0.90381 0.12109 1.4238 0 0.48096-0.04736 0.94434-0.14258 1.3887-0.09277 0.44189-0.23633 0.80615-0.43164 1.0918-0.19287 0.28809-0.43994 0.51514-0.74023 0.68359v0.13672c0.60303-0.26856 1.0898-0.71484 1.4609-1.3398 0.37354-0.62256 0.56055-1.3135 0.56055-2.0703 0-0.52002-0.09473-1.0195-0.28516-1.498-0.19-0.4818-0.459-0.9003-0.808-1.2567-0.247-0.249-0.557-0.4653-0.928-0.6484zm-14.058 0.7519c-0.1001 0.2466-0.1782 0.415-0.2344 0.5078-0.1098 0.1758-0.2353 0.3296-0.3769 0.459-0.1392 0.127-0.2759 0.2158-0.4102 0.2695v0.12109h0.53125v2.2559c0 0.2417 0.024903 0.42188 0.076172 0.53906 0.05127 0.11475 0.13086 0.2041 0.23828 0.26758 0.10742 0.06103 0.21777 0.0918 0.33008 0.0918 0.16602 0 0.32617-0.06006 0.48242-0.17969 0.15625-0.12207 0.27783-0.30371 0.36328-0.54297h-0.14258c-0.041504 0.09765-0.1001 0.17334-0.17578 0.22461-0.075684 0.04883-0.15381 0.07227-0.23438 0.07227-0.097656 0-0.17871-0.0376-0.24219-0.11328-0.061035-0.07568-0.091797-0.22217-0.091797-0.43945v-2.1758h0.7832v-0.25586h-0.7832v-1.1016h-0.11328zm2.6074 1.002c-0.38818 0-0.68945 0.087891-0.9043 0.26367-0.21484 0.17578-0.32227 0.37012-0.32227 0.58008 0 0.10986 0.027832 0.19629 0.083984 0.25977 0.058594 0.063477 0.13232 0.09375 0.22266 0.09375 0.092773 0 0.16846-0.028808 0.22461-0.089844 0.058594-0.061035 0.087891-0.14941 0.087891-0.26172l-0.00781-0.21094c0-0.10742 0.045898-0.2041 0.13867-0.28711 0.090332-0.083008 0.21338-0.12305 0.36719-0.12305 0.20264 0 0.35596 0.061035 0.46094 0.18555 0.10742 0.12451 0.16016 0.35498 0.16016 0.68945v0.13086c-0.5762 0.2099-0.9874 0.3886-1.2364 0.5348-0.24658 0.14648-0.42139 0.30274-0.52148 0.46875-0.073242 0.11963-0.10938 0.26221-0.10938 0.42578 0 0.25879 0.075684 0.46631 0.22461 0.625 0.15137 0.15869 0.34229 0.23828 0.57422 0.23828 0.14893 0 0.29004-0.03076 0.42188-0.0918 0.087891-0.0415 0.30225-0.19482 0.64648-0.46094 0.00244 0.2002 0.040527 0.34277 0.11133 0.42578 0.070801 0.08301 0.16553 0.12305 0.28516 0.12305 0.24902 0 0.50977-0.18262 0.7832-0.54883v-0.20508c-0.14648 0.14648-0.24561 0.23584-0.29688 0.26758-0.029297 0.01709-0.0625 0.02539-0.10156 0.02539-0.036621 0-0.070313-0.0127-0.099609-0.03711-0.026855-0.02441-0.046386-0.07178-0.058594-0.14258-0.012207-0.07324-0.017578-0.27002-0.017578-0.58984v-1.1387c0-0.32471-0.022461-0.53955-0.066406-0.64453-0.0684-0.1604-0.1743-0.2791-0.3184-0.3548-0.1904-0.1001-0.4345-0.1503-0.7324-0.1503zm2.7578 0-1.0117 0.41016 0.054687 0.13281c0.095215-0.036621 0.17773-0.054687 0.24609-0.054687 0.063476 0 0.11377 0.015137 0.15039 0.046875 0.039063 0.031738 0.066894 0.091797 0.083984 0.17969 0.019531 0.087891 0.029297 0.3335 0.029297 0.73633v1.2441c0 0.24414-0.030762 0.41016-0.091797 0.49805-0.058594 0.08545-0.17285 0.12891-0.34375 0.12891h-0.074219v0.13281h1.6602v-0.13281c-0.18311 0-0.30615-0.01513-0.36719-0.04687-0.058593-0.03418-0.10449-0.0874-0.13867-0.1582-0.026855-0.05371-0.039063-0.19482-0.039063-0.42188v-1.7676c0.28809-0.31738 0.57666-0.47656 0.86719-0.47656 0.18799 0 0.32031 0.069824 0.39844 0.20898 0.080566 0.13672 0.12109 0.35693 0.12109 0.66211v1.373c0 0.19287-0.00391 0.30908-0.013672 0.3457-0.024414 0.09277-0.069336 0.16211-0.13281 0.21094-0.061035 0.04639-0.16992 0.07031-0.32617 0.07031h-0.068359v0.13281h1.6582v-0.13281c-0.16114 0-0.27295-0.0166-0.33398-0.05078-0.05859-0.03418-0.1001-0.08155-0.12695-0.14258-0.03418-0.07568-0.052734-0.22119-0.052734-0.43359v-1.4316c0.0001-0.3028-0.0263-0.5274-0.08-0.6739-0.0781-0.21-0.1826-0.3589-0.3145-0.4492-0.1318-0.0928-0.2895-0.1406-0.4726-0.1406-0.35645 0-0.72998 0.2373-1.123 0.71094l-0.00195-0.71094h-0.15625zm6.5 0.14062-0.97852 0.17188v0.13086c0.07324-0.00488 0.13916-0.00586 0.19531-0.00586 0.17578 0 0.30811 0.031738 0.39844 0.097656s0.16455 0.1792 0.2207 0.33789c0.01221 0.03418 0.09277 0.34814 0.24414 0.94141-0.06104 0.13672-0.19092 0.3584-0.38867 0.66602s-0.354 0.50684-0.46875 0.59961c-0.04638 0.03906-0.08398 0.05859-0.11328 0.05859-0.03418 0-0.08301-0.02783-0.14648-0.08398-0.08789-0.07813-0.16992-0.11719-0.24805-0.11719-0.07812 0-0.14355 0.02637-0.19726 0.08008s-0.08203 0.12256-0.08203 0.20312c0 0.09033 0.0293 0.16113 0.08789 0.21484 0.08057 0.0708 0.16992 0.10547 0.26758 0.10547 0.13916 0 0.28272-0.05957 0.43164-0.18164 0.22949-0.19043 0.53516-0.61768 0.91602-1.2793 0.16114 0.7251 0.26709 1.1353 0.31836 1.2305 0.08057 0.15381 0.18945 0.23047 0.32617 0.23047 0.09277 0 0.20752-0.05274 0.3418-0.16016 0.23682-0.19043 0.43213-0.43066 0.58594-0.71875l-0.12891-0.06445c-0.09522 0.18066-0.20947 0.32715-0.34375 0.43945-0.06836 0.05615-0.12842 0.08398-0.17969 0.08398-0.03173 0-0.06396-0.01807-0.0957-0.05469-0.03174-0.03906-0.0708-0.15478-0.11719-0.34766l-0.3-1.2604c0.20996-0.36377 0.3916-0.60938 0.54297-0.73633 0.08057-0.068359 0.15039-0.10352 0.20898-0.10352 0.03906 0 0.11572 0.019531 0.23047 0.058594 0.0586 0.021973 0.1128 0.033203 0.16406 0.033203 0.08789-1e-7 0.16602-0.030762 0.23438-0.091797 0.03662-0.03418 0.05469-0.09668 0.05469-0.18945 0-0.080566-0.03028-0.14893-0.09375-0.20508-0.06104-0.056153-0.14502-0.083984-0.25-0.083984-0.0708 0-0.13477 0.010742-0.19336 0.035156-0.09277 0.039063-0.2002 0.11328-0.32227 0.2207-0.12207 0.10498-0.22705 0.21484-0.3125 0.33203l-0.323 0.4844c-0.1-0.3735-0.171-0.6035-0.215-0.6914-0.061-0.1269-0.151-0.2539-0.271-0.3808zm-8.7461 1.3145v1.2773c-0.30273 0.24414-0.54688 0.36719-0.73242 0.36719-0.13672 0-0.25635-0.05908-0.36133-0.17383-0.10498-0.11719-0.1582-0.26172-0.1582-0.4375 0-0.13916 0.041992-0.26758 0.125-0.38477s0.22119-0.23047 0.41406-0.33789c0.10742-0.06103 0.34424-0.16406 0.71289-0.31055z"/>
 </g>
 <g id="button_del">
  <rect style="color-rendering:auto;color:#000000;shape-rendering:auto;solid-color:#000000;mix-blend-mode:normal;image-rendering:auto;isolation:auto" class="button_border" rx="1.9" height="19" width="19" y=".5" x=".5"/>
  <path style="" d="m15 6h-8l-3 4 3 4h8z" class="button_path"/>
  <path class="button_text" style="stroke-width:.1" d="m9.4617 9.9524-1.4795-2.0032h1.3879l0.83862 1.2158 0.84961-1.2158h1.3879l-1.4795 1.9958 1.5527 2.1057h-1.3879l-0.92285-1.2964-0.91186 1.2964h-1.3879l1.5527-2.0984z"/>
 </g>
 <g id="button_split">
  <rect style="color-rendering:auto;color:#000000;shape-rendering:auto;solid-color:#000000;mix-blend-mode:normal;image-rendering:auto;isolation:auto" class="button_border" rx="1.9" height="19" width="19" y=".5" x=".5"/>
  <path class="button_path" style="" d="m3 10h14"/>
 </g>
 <g id="button_save">
  <rect style="color-rendering:auto;color:#000000;shape-rendering:auto;solid-color:#000000;mix-blend-mode:normal;image-rendering:auto;isolation:auto" class="button_border" rx="1.9" height="19" width="19" y=".5" x=".5"/>
  <path style="" d="m5.5303 8.7532 4.4697 3.1268l4.4697-3.1266h-2.2349v-6.2532h-4.4697v6.2532z" class="button_path"/>
  <rect style="" class="button_path" rx="1.9" height="4" width="14" y="13.5" x="3"/>
  <path class="button_path" style="" d="m14.5 15.5a0.5 0.5 0 0 1 -0.5 0.5 0.5 0.5 0 0 1 -0.5 -0.5 0.5 0.5 0 0 1 0.5 -0.5 0.5 0.5 0 0 1 0.5 0.5z"/>
 </g>
 <g id="button_load">
  <rect style="color-rendering:auto;color:#000000;shape-rendering:auto;solid-color:#000000;mix-blend-mode:normal;image-rendering:auto;isolation:auto" class="button_border" rx="1.9" height="19" width="19" y=".5" x=".5"/>
  <path style="" d="m5.5303 5.7368 4.4697-3.1266l4.4697 3.1266h-2.2349v6.2532h-4.4697v-6.2532z" class="button_path"/>
  <rect style="" class="button_path" rx="1.9" height="4" width="14" y="13.5" x="3"/>
  <path class="button_path" style="" d="m14.5 15.5a0.5 0.5 0 0 1 -0.5 0.5 0.5 0.5 0 0 1 -0.5 -0.5 0.5 0.5 0 0 1 0.5 -0.5 0.5 0.5 0 0 1 0.5 0.5z"/>
 </g>
</defs>
</svg>
