<?xml version="1.0" encoding="UTF-8" standalone="no"?>
<!-- Created with Inkscape (http://www.inkscape.org/) -->

<svg
   xmlns:dc="http://purl.org/dc/elements/1.1/"
   xmlns:cc="http://creativecommons.org/ns#"
   xmlns:rdf="http://www.w3.org/1999/02/22-rdf-syntax-ns#"
   xmlns:svg="http://www.w3.org/2000/svg"
   xmlns="http://www.w3.org/2000/svg"
   xmlns:sodipodi="http://sodipodi.sourceforge.net/DTD/sodipodi-0.dtd"
   xmlns:inkscape="http://www.inkscape.org/namespaces/inkscape"
   width="20"
   height="20"
   viewBox="0 0 20 20"
   id="svg2"
   version="1.1"
   inkscape:version="0.91 r13725"
   sodipodi:docname="button_sin.svg">
  <defs
     id="defs4" />
  <sodipodi:namedview
     id="base"
     pagecolor="#ffffff"
     bordercolor="#666666"
     borderopacity="1.0"
     inkscape:pageopacity="0.0"
     inkscape:pageshadow="2"
     inkscape:zoom="22.627417"
     inkscape:cx="7.1057115"
     inkscape:cy="7.0881623"
     inkscape:document-units="px"
     inkscape:current-layer="button_sin"
     showgrid="true"
     inkscape:window-width="1680"
     inkscape:window-height="987"
     inkscape:window-x="-8"
     inkscape:window-y="-8"
     inkscape:window-maximized="1"
     objecttolerance="20"
     guidetolerance="20"
     inkscape:snap-perpendicular="true"
     inkscape:snap-tangential="true"
     inkscape:snap-bbox="true"
     inkscape:object-nodes="true"
     units="px"
     inkscape:snap-text-baseline="true">
    <inkscape:grid
       type="xygrid"
       id="grid3336"
       units="px"
       spacingx="1"
       spacingy="1" />
  </sodipodi:namedview>
  <metadata
     id="metadata7">
    <rdf:RDF>
      <cc:Work
         rdf:about="">
        <dc:format>image/svg+xml</dc:format>
        <dc:type
           rdf:resource="http://purl.org/dc/dcmitype/StillImage" />
        <dc:title></dc:title>
      </cc:Work>
    </rdf:RDF>
  </metadata>
  <g
     inkscape:label="Ebene 1"
     inkscape:groupmode="layer"
     id="button_sin">
    <rect
       id="rect3336"
       width="19"
       height="19"
       x="0.5"
       y="0.5"
       rx="1.9"
       class="button_border"
       style="color:#000000;clip-rule:nonzero;display:inline;overflow:visible;visibility:visible;opacity:1;isolation:auto;mix-blend-mode:normal;color-interpolation:sRGB;color-interpolation-filters:linearRGB;solid-color:#000000;solid-opacity:1;fill:none;fill-opacity:1;fill-rule:evenodd;stroke:#000000;stroke-width:1;stroke-linecap:butt;stroke-linejoin:miter;stroke-miterlimit:4;stroke-dasharray:none;stroke-dashoffset:0;stroke-opacity:1;color-rendering:auto;image-rendering:auto;shape-rendering:auto;text-rendering:auto;enable-background:accumulate" />
    <path
       d="m 5.4375,6.59375 c -0.1049805,0 -0.1943359,0.038086 -0.2675781,0.1113281 -0.070801,0.070801 -0.1054688,0.1572266 -0.1054688,0.2597657 0,0.102539 0.036133,0.1904296 0.109375,0.2636718 0.073242,0.073242 0.1611328,0.109375 0.2636719,0.109375 0.1025391,0 0.1889648,-0.036133 0.2597656,-0.109375 0.073242,-0.073242 0.109375,-0.1611328 0.109375,-0.2636718 0,-0.1025391 -0.036133,-0.1889649 -0.109375,-0.2597657 C 5.6264648,6.6318359 5.5400391,6.59375 5.4375,6.59375 Z m 7.070312,0 c -0.600586,0.2685547 -1.087402,0.7148438 -1.460937,1.3398438 -0.373535,0.6225586 -0.560547,1.3134766 -0.560547,2.0703122 0,0.517578 0.09668,1.01709 0.28711,1.498047 0.19043,0.480957 0.460938,0.897949 0.8125,1.251953 0.246581,0.249024 0.553222,0.466797 0.921874,0.652344 l 0,-0.136719 c -0.246581,-0.170898 -0.4458,-0.349121 -0.599609,-0.537109 -0.151367,-0.187989 -0.272949,-0.384766 -0.363281,-0.589844 -0.09033,-0.202637 -0.166996,-0.47168 -0.230469,-0.808594 -0.08057,-0.427246 -0.121094,-0.90332 -0.121094,-1.4257809 0,-0.480957 0.04736,-0.9428711 0.142579,-1.3847656 0.09521,-0.4418945 0.240722,-0.8056641 0.433593,-1.09375 0.192871,-0.2880859 0.437988,-0.515625 0.738281,-0.6816406 l 0,-0.1542969 z m 3.669922,0 0,0.1542969 c 0.249024,0.1708984 0.450196,0.3510741 0.601563,0.5390625 0.151367,0.1879882 0.270996,0.3833007 0.361328,0.5859375 0.09277,0.2026366 0.169433,0.4716797 0.230469,0.8085937 0.08057,0.4296876 0.121094,0.9038088 0.121094,1.4238284 0,0.480957 -0.04736,0.944336 -0.142579,1.388672 -0.09277,0.441894 -0.236328,0.806152 -0.43164,1.091797 -0.192872,0.288086 -0.439942,0.515136 -0.740235,0.683593 l 0,0.136719 c 0.603028,-0.268555 1.089845,-0.714844 1.460938,-1.339844 0.373535,-0.622558 0.560547,-1.313476 0.560547,-2.0703122 0,-0.5200196 -0.09473,-1.0195313 -0.285157,-1.4980469 C 17.723633,8.0170898 17.452637,7.5986328 17.103516,7.2421875 16.856934,6.9931641 16.548828,6.7768555 16.177734,6.59375 Z M 2.8183594,8.3476562 c -0.300293,1e-7 -0.5458984,0.09375 -0.7363282,0.2792969 -0.1879882,0.1855469 -0.28125,0.4155273 -0.28125,0.6914063 0,0.2124023 0.054199,0.3881836 0.1640626,0.5273437 0.1098633,0.1416018 0.3413086,0.3007809 0.6953124,0.4765629 0.354004,0.175781 0.5898438,0.320802 0.7070313,0.435546 0.1196289,0.114746 0.1796875,0.257325 0.1796875,0.425782 0,0.13916 -0.052734,0.257324 -0.1601562,0.357422 C 3.2817383,11.638672 3.1450196,11.6875 2.9765625,11.6875 2.7373047,11.6875 2.5209961,11.601074 2.328125,11.427734 2.1352539,11.254394 2.0039062,10.998047 1.9355469,10.65625 l -0.1210938,0 0,1.197266 0.1210938,0 c 0.031738,-0.06347 0.07666,-0.0957 0.1328125,-0.0957 0.05127,10e-7 0.1166992,0.0127 0.1972656,0.03711 0.2636719,0.07324 0.4980469,0.109375 0.703125,0.109375 0.2856445,0 0.5439453,-0.0918 0.7734375,-0.277344 0.2319336,-0.187989 0.3476563,-0.435058 0.3476563,-0.740234 0,-0.395508 -0.2485352,-0.715332 -0.7441407,-0.9570315 L 2.8105469,9.6699219 C 2.5786133,9.5576171 2.425293,9.4516602 2.3496094,9.3515625 2.2714844,9.2539063 2.2324219,9.1367188 2.2324219,9 c 0,-0.1098633 0.053223,-0.2104492 0.1582031,-0.3007812 0.1049805,-0.090332 0.243164,-0.1347657 0.4140625,-0.1347657 0.2246093,0 0.4086914,0.063965 0.5527344,0.1933594 0.1464844,0.1293945 0.2646484,0.3735351 0.3574219,0.7324219 l 0.1210937,0 0,-1.1425782 -0.1210937,0 c -0.029297,0.058594 -0.054199,0.098144 -0.076172,0.1152344 -0.021973,0.01709 -0.052734,0.025391 -0.091797,0.025391 -0.041504,0 -0.1235351,-0.018066 -0.2480469,-0.054687 -0.187988,-0.056153 -0.3486326,-0.085938 -0.4804685,-0.085938 z m 2.7617187,0 -1.0117187,0.4101563 0.052734,0.1328125 c 0.097656,-0.036621 0.1796874,-0.054687 0.2480468,-0.054687 0.063476,0 0.1137693,0.015137 0.1503906,0.046875 0.036621,0.029297 0.062988,0.083984 0.080078,0.1621094 C 5.121582,9.1523437 5.1328125,9.3862305 5.1328125,9.75 l 0,1.292969 c 0,0.207519 -0.016601,0.348632 -0.050781,0.421875 -0.031738,0.07324 -0.07666,0.126463 -0.1328124,0.158203 -0.056152,0.03174 -0.1645508,0.04687 -0.328125,0.04687 l 0,0.132812 1.6289062,0 0,-0.132812 c -0.1586912,0 -0.2690428,-0.0166 -0.3300781,-0.05078 -0.058594,-0.03418 -0.1030277,-0.08594 -0.1347657,-0.154297 -0.029297,-0.0708 -0.044922,-0.211914 -0.044922,-0.421875 l 0,-2.6953128 -0.1601563,0 z m 1.9042969,0 -1.0117188,0.4101563 0.054688,0.1328125 c 0.095215,-0.036621 0.1777344,-0.054687 0.2460937,-0.054687 0.063476,0 0.1137693,0.015137 0.1503906,0.046875 0.039063,0.031738 0.066894,0.091797 0.083984,0.1796875 0.019531,0.087891 0.029297,0.3334961 0.029297,0.7363281 l 0,1.2441414 c 0,0.24414 -0.030762,0.410156 -0.091797,0.498047 -0.058594,0.08545 -0.1728515,0.128906 -0.34375,0.128906 l -0.074219,0 0,0.132812 1.6601562,0 0,-0.132812 c -0.1831053,0 -0.3061522,-0.01513 -0.3671875,-0.04687 -0.058593,-0.03418 -0.1044919,-0.0874 -0.1386719,-0.158203 -0.026855,-0.05371 -0.041016,-0.194825 -0.041016,-0.421875 l 0,-1.7675789 c 0.2880866,-0.3173883 0.578614,-0.476568 0.8691413,-0.476568 0.1879883,0 0.3203125,0.069824 0.3984375,0.2089844 0.080566,0.1367187 0.1210938,0.3569336 0.1210938,0.6621094 l 0,1.3730471 c 0,0.192872 -0.00391,0.309083 -0.013672,0.345703 -0.024414,0.09277 -0.069336,0.162111 -0.1328125,0.210937 -0.061035,0.04639 -0.1699219,0.07031 -0.3261719,0.07031 l -0.068359,0 0,0.132812 1.6582025,0 0,-0.132812 c -0.1611317,0 -0.2729484,-0.0166 -0.3339837,-0.05078 -0.058594,-0.03418 -0.1000978,-0.08155 -0.1269531,-0.142579 -0.03418,-0.07568 -0.052734,-0.221191 -0.052734,-0.433593 l 0,-1.4316409 C 9.6328125,9.3085937 9.606445,9.0839843 9.5527344,8.9375 9.4746094,8.7275391 9.3701172,8.5786133 9.2382812,8.4882812 9.1064452,8.3955078 8.9487305,8.3476562 8.765625,8.3476562 c -0.3564453,0 -0.7299805,0.2373048 -1.1230469,0.7109376 l -0.00195,-0.7109376 -0.15625,0 z m 6.5,0.140625 -0.978516,0.171875 0,0.1308594 c 0.07324,-0.00488 0.13916,-0.00586 0.195313,-0.00586 0.175781,0 0.308105,0.031738 0.398437,0.097656 0.09033,0.065918 0.16455,0.1791992 0.220703,0.3378906 0.01221,0.03418 0.09277,0.3481444 0.244141,0.9414058 -0.06104,0.136719 -0.188965,0.358399 -0.386719,0.666016 -0.197754,0.307617 -0.354004,0.506836 -0.46875,0.599609 -0.04638,0.03906 -0.08593,0.05859 -0.115234,0.05859 -0.03418,0 -0.08301,-0.02783 -0.146484,-0.08398 -0.08789,-0.07813 -0.169923,-0.117188 -0.248047,-0.117188 -0.07812,0 -0.143553,0.02637 -0.197266,0.08008 -0.05371,0.05371 -0.08203,0.120606 -0.08203,0.201172 0,0.09033 0.0293,0.163084 0.08789,0.216797 0.08057,0.0708 0.169923,0.105469 0.267579,0.105469 0.13916,0 0.284667,-0.05957 0.433593,-0.181641 0.229492,-0.19043 0.533204,-0.617676 0.914063,-1.279297 0.161129,0.725098 0.267086,1.135254 0.318359,1.230469 0.08057,0.153808 0.189453,0.230469 0.326172,0.230469 0.09277,0 0.20752,-0.05274 0.341797,-0.160156 0.236816,-0.19043 0.432129,-0.430664 0.585937,-0.71875 l -0.128906,-0.06445 c -0.09521,0.180665 -0.209472,0.327149 -0.34375,0.439454 -0.06836,0.05615 -0.128421,0.08398 -0.179687,0.08398 -0.03174,0 -0.06396,-0.01807 -0.0957,-0.05469 -0.03174,-0.03906 -0.0708,-0.154785 -0.117188,-0.347656 L 14.529297,9.8066406 c 0.209961,-0.3637695 0.391602,-0.609375 0.542969,-0.7363281 0.08057,-0.068359 0.150391,-0.1035156 0.208984,-0.1035156 0.03906,0 0.115722,0.019531 0.230469,0.058594 0.05859,0.021973 0.112789,0.033203 0.164062,0.033203 0.08789,-10e-8 0.166015,-0.030762 0.234375,-0.091797 0.03662,-0.03418 0.05469,-0.09668 0.05469,-0.1894531 0,-0.080566 -0.03028,-0.1489255 -0.09375,-0.2050782 -0.06103,-0.056153 -0.14502,-0.083984 -0.25,-0.083984 -0.0708,0 -0.134766,0.010742 -0.19336,0.035156 -0.09277,0.039063 -0.200195,0.1132813 -0.322265,0.2207031 -0.12207,0.1049805 -0.227051,0.2148438 -0.3125,0.3320313 L 14.470705,9.560547 C 14.370606,9.1870117 14.299806,8.9570312 14.255859,8.8691406 14.194824,8.7421875 14.104004,8.6152344 13.984375,8.4882812 Z"
       id="path4715"
       class="button_text"
       inkscape:connector-curvature="0"
       style="stroke-width:0.1" />
  </g>
</svg>
