<?xml version="1.0" encoding="UTF-8" standalone="no"?>
<!-- Created with Inkscape (http://www.inkscape.org/) -->

<svg
   xmlns:dc="http://purl.org/dc/elements/1.1/"
   xmlns:cc="http://creativecommons.org/ns#"
   xmlns:rdf="http://www.w3.org/1999/02/22-rdf-syntax-ns#"
   xmlns:svg="http://www.w3.org/2000/svg"
   xmlns="http://www.w3.org/2000/svg"
   xmlns:sodipodi="http://sodipodi.sourceforge.net/DTD/sodipodi-0.dtd"
   xmlns:inkscape="http://www.inkscape.org/namespaces/inkscape"
   width="20"
   height="20"
   viewBox="0 0 20 20"
   id="svg2"
   version="1.1"
   inkscape:version="0.91 r13725"
   sodipodi:docname="button_cos.svg">
  <defs
     id="defs4" />
  <sodipodi:namedview
     id="base"
     pagecolor="#ffffff"
     bordercolor="#666666"
     borderopacity="1.0"
     inkscape:pageopacity="0.0"
     inkscape:pageshadow="2"
     inkscape:zoom="22.627417"
     inkscape:cx="11.901961"
     inkscape:cy="7.0881623"
     inkscape:document-units="px"
     inkscape:current-layer="button_cos"
     showgrid="true"
     inkscape:window-width="1680"
     inkscape:window-height="987"
     inkscape:window-x="-8"
     inkscape:window-y="-8"
     inkscape:window-maximized="1"
     objecttolerance="20"
     guidetolerance="20"
     inkscape:snap-perpendicular="true"
     inkscape:snap-tangential="true"
     inkscape:snap-bbox="true"
     inkscape:object-nodes="true"
     units="px"
     inkscape:snap-text-baseline="true">
    <inkscape:grid
       type="xygrid"
       id="grid3336"
       units="px"
       spacingx="1"
       spacingy="1" />
  </sodipodi:namedview>
  <metadata
     id="metadata7">
    <rdf:RDF>
      <cc:Work
         rdf:about="">
        <dc:format>image/svg+xml</dc:format>
        <dc:type
           rdf:resource="http://purl.org/dc/dcmitype/StillImage" />
        <dc:title></dc:title>
      </cc:Work>
    </rdf:RDF>
  </metadata>
  <g
     inkscape:label="Ebene 1"
     inkscape:groupmode="layer"
     id="button_cos">
    <rect
       id="rect3336"
       width="19"
       height="19"
       x="0.5"
       y="0.5"
       rx="1.9"
       class="button_border"
       style="color:#000000;clip-rule:nonzero;display:inline;overflow:visible;visibility:visible;opacity:1;isolation:auto;mix-blend-mode:normal;color-interpolation:sRGB;color-interpolation-filters:linearRGB;solid-color:#000000;solid-opacity:1;fill:none;fill-opacity:1;fill-rule:evenodd;stroke:#000000;stroke-width:1;stroke-linecap:butt;stroke-linejoin:miter;stroke-miterlimit:4;stroke-dasharray:none;stroke-dashoffset:0;stroke-opacity:1;color-rendering:auto;image-rendering:auto;shape-rendering:auto;text-rendering:auto;enable-background:accumulate" />
    <path
       style="stroke-width:0.1"
       d="m 13.185547,6.59375 c -0.600586,0.2685547 -1.087403,0.7148437 -1.460938,1.3398438 -0.373535,0.6225586 -0.560547,1.3134766 -0.560547,2.0703122 1e-6,0.517578 0.09473,1.01709 0.285157,1.498047 0.19043,0.480957 0.46289,0.897949 0.814453,1.251953 0.246582,0.249024 0.553223,0.466797 0.921875,0.652344 l 0,-0.136719 c -0.246582,-0.170898 -0.445801,-0.349121 -0.599609,-0.537109 -0.151368,-0.187989 -0.27295,-0.384766 -0.363282,-0.589844 -0.09033,-0.202637 -0.166995,-0.47168 -0.230468,-0.808594 -0.08057,-0.427246 -0.121094,-0.90332 -0.121094,-1.4257809 0,-0.480957 0.04736,-0.9428711 0.142578,-1.3847656 0.09521,-0.4418945 0.238769,-0.8056641 0.43164,-1.09375 0.192872,-0.2880859 0.439942,-0.515625 0.740235,-0.6816406 l 0,-0.1542969 z m 3.669922,0 0,0.1542969 c 0.249023,0.1708984 0.450195,0.3510741 0.601562,0.5390625 0.151367,0.1879882 0.270996,0.3833007 0.361328,0.5859375 0.09277,0.2026366 0.169434,0.4716797 0.230469,0.8085937 0.08057,0.4296876 0.121094,0.9038088 0.121094,1.4238284 0,0.480957 -0.04736,0.944336 -0.142578,1.388672 -0.09277,0.441894 -0.236328,0.806152 -0.431641,1.091797 -0.192871,0.288085 -0.439942,0.515136 -0.740234,0.683593 l 0,0.136719 c 0.603027,-0.268555 1.089844,-0.714844 1.460937,-1.339844 0.373536,-0.622558 0.560547,-1.313476 0.560547,-2.0703122 0,-0.5200196 -0.09473,-1.0195313 -0.285156,-1.4980469 C 18.401367,8.0170898 18.130371,7.5986328 17.78125,7.2421875 17.534668,6.9931641 17.226562,6.7768555 16.855469,6.59375 Z M 2.7226563,8.3476562 c -0.4394531,1e-7 -0.8159179,0.1645509 -1.1308593,0.4941407 -0.3125,0.3295898 -0.46875,0.7597655 -0.46875,1.2871091 0,0.544434 0.1425781,0.975097 0.4257812,1.294922 0.2832031,0.319824 0.6132813,0.480469 0.9941407,0.480469 0.3198241,0 0.6132811,-0.118652 0.8769531,-0.355469 0.2636718,-0.239257 0.4389648,-0.57959 0.5292969,-1.021484 L 3.8437501,10.476562 C 3.716797,10.771972 3.5854494,10.975586 3.451172,11.087891 3.2607423,11.251465 3.0478516,11.333984 2.8085939,11.333984 2.4741212,11.333984 2.2075197,11.180176 2.0097657,10.875 1.8144533,10.567383 1.716797,10.21289 1.716797,9.8125 1.716797,9.4194336 1.815918,9.1044922 2.013672,8.8652344 2.1625977,8.6845703 2.3593751,8.59375 2.6035157,8.59375 c 0.1513672,0 0.2680664,0.036133 0.3535156,0.109375 0.085449,0.075684 0.1342774,0.1860352 0.1464844,0.3300781 0.014648,0.144043 0.042481,0.2416989 0.083984,0.2929688 0.073242,0.092773 0.1821289,0.1386719 0.3261719,0.1386719 0.1074216,0 0.191406,-0.027832 0.25,-0.083984 0.061035,-0.058594 0.091797,-0.1337891 0.091797,-0.2265625 0,-0.1879883 -0.1059571,-0.3696289 -0.3183594,-0.5429688 C 3.3247071,8.4355469 3.0522461,8.3476562 2.7226563,8.3476562 Z m 3.3437499,0 c -0.2783201,0 -0.5419921,0.074219 -0.7910156,0.2207032 -0.2490233,0.144043 -0.449707,0.3686523 -0.6035155,0.6738281 -0.1513672,0.3027343 -0.2265625,0.6083982 -0.2265625,0.9160155 0,0.422363 0.1254883,0.803223 0.376953,1.142578 0.2978516,0.402832 0.6997072,0.603516 1.2050782,0.603516 0.3100586,0 0.5903321,-0.07813 0.8417968,-0.234375 0.2539063,-0.15625 0.4516603,-0.387695 0.5957032,-0.695313 0.144043,-0.307617 0.2167968,-0.611816 0.2167968,-0.912109 0,-0.4272462 -0.1293945,-0.8051758 -0.390625,-1.1347656 C 6.9833984,8.5419922 6.5742188,8.3476562 6.0664063,8.3476562 Z m 3.2597657,0 c -0.300293,1e-7 -0.5458985,0.09375 -0.7363281,0.2792969 -0.1879883,0.1855469 -0.28125,0.4155273 -0.28125,0.6914063 0,0.2124023 0.054199,0.3881836 0.1640625,0.5273437 0.1098633,0.1416018 0.3413086,0.3007809 0.6953125,0.4765629 0.3540038,0.175781 0.5898437,0.320802 0.7070312,0.435546 0.1196291,0.114746 0.179688,0.257325 0.179688,0.425782 0,0.13916 -0.05274,0.257324 -0.1601567,0.357422 -0.1049804,0.09766 -0.2416992,0.146484 -0.4101562,0.146484 -0.2392578,0 -0.4555664,-0.08643 -0.6484375,-0.259766 C 8.6430665,11.254394 8.5117189,10.998047 8.4433595,10.65625 l -0.1210938,0 0,1.197266 0.1210938,0 c 0.031738,-0.06347 0.07666,-0.0957 0.1328125,-0.0957 0.05127,10e-7 0.1166992,0.0127 0.1972656,0.03711 0.2636719,0.07324 0.4980469,0.109375 0.703125,0.109375 0.2856445,0 0.5419924,-0.0918 0.7714844,-0.277344 0.231934,-0.187989 0.349609,-0.435058 0.349609,-0.740234 0,-0.395508 -0.248535,-0.715332 -0.7441404,-0.9570315 L 9.3183595,9.6699219 C 9.0864259,9.5576171 8.9331056,9.4516602 8.857422,9.3515625 8.779297,9.2539063 8.7402345,9.1367188 8.7402345,9 c 0,-0.1098633 0.053223,-0.2104492 0.1582031,-0.3007812 0.1049805,-0.090332 0.241211,-0.1347657 0.4121094,-0.1347657 0.2246094,0 0.4106445,0.063965 0.5546875,0.1933594 0.1464845,0.1293945 0.2646485,0.3735351 0.3574215,0.7324219 l 0.121094,0 0,-1.1425782 -0.121094,0 c -0.0293,0.058594 -0.0542,0.098144 -0.07617,0.1152344 -0.02197,0.01709 -0.05274,0.025391 -0.0918,0.025391 -0.04151,0 -0.1235355,-0.018066 -0.2480473,-0.054687 C 9.6186525,8.3774411 9.4580079,8.3476562 9.326172,8.3476562 Z m 5.3359371,0.140625 -0.978515,0.171875 0,0.1308594 c 0.07324,-0.00488 0.139159,-0.00586 0.195312,-0.00586 0.175782,0 0.308106,0.031738 0.398438,0.097656 0.09033,0.065918 0.162596,0.1791992 0.21875,0.3378906 0.01221,0.03418 0.09473,0.3481444 0.246094,0.9414058 -0.06104,0.136719 -0.190918,0.358399 -0.388672,0.666016 -0.197754,0.307617 -0.354004,0.506836 -0.46875,0.599609 -0.04638,0.03906 -0.08398,0.05859 -0.113282,0.05859 -0.03418,0 -0.08301,-0.02783 -0.146484,-0.08398 -0.08789,-0.07813 -0.169922,-0.117188 -0.248047,-0.117188 -0.07812,0 -0.145505,0.02637 -0.199219,0.08008 -0.05371,0.05371 -0.08008,0.120606 -0.08008,0.201172 0,0.09033 0.0293,0.163084 0.08789,0.216797 0.08057,0.0708 0.169922,0.105469 0.267578,0.105469 0.13916,0 0.282715,-0.05957 0.431641,-0.181641 0.229492,-0.19043 0.535156,-0.617676 0.916015,-1.279297 0.161136,0.725098 0.267093,1.135254 0.31836,1.230469 0.08057,0.153808 0.189453,0.230469 0.326171,0.230469 0.09277,0 0.205567,-0.05274 0.339844,-0.160156 0.236816,-0.19043 0.432129,-0.430664 0.585938,-0.71875 l -0.126953,-0.06445 c -0.09521,0.180665 -0.209473,0.327149 -0.34375,0.439454 -0.06836,0.05615 -0.128421,0.08398 -0.179688,0.08398 -0.03173,0 -0.06396,-0.01807 -0.0957,-0.05469 -0.03174,-0.03906 -0.0708,-0.154785 -0.117188,-0.347656 L 15.207031,9.8066406 C 15.416992,9.4428711 15.598633,9.1972656 15.75,9.0703125 c 0.08057,-0.068359 0.150391,-0.1035156 0.208984,-0.1035156 0.03906,0 0.115723,0.019531 0.230469,0.058594 0.05859,0.021973 0.112789,0.033203 0.164063,0.033203 0.08789,-10e-8 0.166015,-0.030762 0.234375,-0.091797 0.03662,-0.03418 0.05469,-0.09668 0.05469,-0.1894531 0,-0.080566 -0.03028,-0.1489255 -0.09375,-0.2050782 -0.06104,-0.056153 -0.145019,-0.083984 -0.25,-0.083984 -0.0708,0 -0.134766,0.010742 -0.193359,0.035156 -0.09277,0.039063 -0.200196,0.1132813 -0.322266,0.2207031 -0.122071,0.1049805 -0.227051,0.2148438 -0.3125,0.3320313 L 15.148441,9.560547 C 15.048341,9.1870117 14.97754,8.9570312 14.933594,8.8691406 14.872559,8.7421875 14.781739,8.6152344 14.662109,8.4882812 Z m -8.708984,0.097656 c 0.2685547,0 0.4887696,0.1171875 0.6621094,0.3515625 0.2563477,0.3417972 0.3847657,0.8105474 0.3847657,1.4062503 0,0.476075 -0.07666,0.8125 -0.2304688,1.007812 -0.1538086,0.195313 -0.3491211,0.292969 -0.5859374,0.292969 -0.3173829,0 -0.5722657,-0.177246 -0.7675782,-0.53125 C 5.2231446,10.759277 5.1250001,10.33789 5.1250001,9.8496094 c 0,-0.3027344 0.040527,-0.5512695 0.1210937,-0.7441406 C 5.3266603,8.9125977 5.4311524,8.7788086 5.560547,8.703125 5.6923829,8.625 5.8237306,8.5859375 5.9531251,8.5859375 Z"
       id="path4741"
       inkscape:connector-curvature="0"
       class="button_text" />
  </g>
</svg>
