<?xml version="1.0" encoding="UTF-8" standalone="no"?>
<!-- Created with Inkscape (http://www.inkscape.org/) -->

<svg
   xmlns:dc="http://purl.org/dc/elements/1.1/"
   xmlns:cc="http://creativecommons.org/ns#"
   xmlns:rdf="http://www.w3.org/1999/02/22-rdf-syntax-ns#"
   xmlns:svg="http://www.w3.org/2000/svg"
   xmlns="http://www.w3.org/2000/svg"
   xmlns:sodipodi="http://sodipodi.sourceforge.net/DTD/sodipodi-0.dtd"
   xmlns:inkscape="http://www.inkscape.org/namespaces/inkscape"
   width="20"
   height="20"
   viewBox="0 0 20 20"
   id="svg2"
   version="1.1"
   inkscape:version="0.91 r13725"
   sodipodi:docname="button_tan.svg">
  <defs
     id="defs4" />
  <sodipodi:namedview
     id="base"
     pagecolor="#ffffff"
     bordercolor="#666666"
     borderopacity="1.0"
     inkscape:pageopacity="0.0"
     inkscape:pageshadow="2"
     inkscape:zoom="22.627417"
     inkscape:cx="8.8104476"
     inkscape:cy="6.9996861"
     inkscape:document-units="px"
     inkscape:current-layer="svg2"
     showgrid="true"
     inkscape:window-width="1680"
     inkscape:window-height="987"
     inkscape:window-x="-8"
     inkscape:window-y="-8"
     inkscape:window-maximized="1"
     objecttolerance="20"
     guidetolerance="20"
     inkscape:snap-perpendicular="true"
     inkscape:snap-tangential="true"
     inkscape:snap-bbox="true"
     inkscape:object-nodes="true"
     units="px"
     inkscape:snap-text-baseline="true">
    <inkscape:grid
       type="xygrid"
       id="grid3336"
       units="px"
       spacingx="1"
       spacingy="1" />
  </sodipodi:namedview>
  <metadata
     id="metadata7">
    <rdf:RDF>
      <cc:Work
         rdf:about="">
        <dc:format>image/svg+xml</dc:format>
        <dc:type
           rdf:resource="http://purl.org/dc/dcmitype/StillImage" />
        <dc:title />
      </cc:Work>
    </rdf:RDF>
  </metadata>
  <g
     inkscape:label="Ebene 1"
     inkscape:groupmode="layer"
     id="button_tan">
    <rect
       id="rect3336"
       width="19"
       height="19"
       x="0.5"
       y="0.5"
       rx="1.9"
       class="button_border"
       style="color:#000000;clip-rule:nonzero;display:inline;overflow:visible;visibility:visible;opacity:1;isolation:auto;mix-blend-mode:normal;color-interpolation:sRGB;color-interpolation-filters:linearRGB;solid-color:#000000;solid-opacity:1;fill:none;fill-opacity:1;fill-rule:evenodd;stroke:#000000;stroke-width:1;stroke-linecap:butt;stroke-linejoin:miter;stroke-miterlimit:4;stroke-dasharray:none;stroke-dashoffset:0;stroke-opacity:1;color-rendering:auto;image-rendering:auto;shape-rendering:auto;text-rendering:auto;enable-background:accumulate" />
    <path
       style="stroke-width:0.1"
       d="m 12.859375,6.59375 c -0.600585,0.2685547 -1.087402,0.7148438 -1.460937,1.3398438 -0.373536,0.6225586 -0.560547,1.3134766 -0.560547,2.0703122 0,0.517578 0.09668,1.01709 0.287109,1.498047 0.190429,0.480957 0.460937,0.897949 0.8125,1.251953 0.246582,0.249024 0.553223,0.466797 0.921875,0.652344 l 0,-0.136719 c -0.246582,-0.170898 -0.445801,-0.349121 -0.599609,-0.537109 -0.151367,-0.187989 -0.27295,-0.384766 -0.363282,-0.589844 -0.09033,-0.202637 -0.166988,-0.47168 -0.230468,-0.808594 -0.08057,-0.427246 -0.121094,-0.90332 -0.121094,-1.4257809 0,-0.480957 0.04736,-0.9428711 0.142578,-1.3847656 0.09521,-0.4418945 0.240723,-0.8056641 0.433594,-1.09375 0.192871,-0.2880859 0.437988,-0.515625 0.738281,-0.6816406 l 0,-0.1542969 z m 3.669922,0 0,0.1542969 c 0.249023,0.1708984 0.450195,0.3510741 0.601562,0.5390625 0.151368,0.1879882 0.270996,0.3833007 0.361329,0.5859375 0.09277,0.2026366 0.169433,0.4716797 0.230468,0.8085937 0.08057,0.4296876 0.121094,0.9038087 0.121094,1.4238284 0,0.480957 -0.04736,0.944336 -0.142578,1.388672 -0.09277,0.441894 -0.236328,0.806152 -0.431641,1.091797 -0.192871,0.288086 -0.439941,0.515136 -0.740234,0.683593 l 0,0.136719 c 0.603027,-0.268555 1.089843,-0.714844 1.460937,-1.339844 0.373535,-0.622558 0.560547,-1.313476 0.560547,-2.0703122 0,-0.5200196 -0.09473,-1.0195313 -0.285156,-1.4980469 C 18.075195,8.0170898 17.806152,7.5986328 17.457031,7.2421875 17.210449,6.9931641 16.900391,6.7768555 16.529297,6.59375 Z M 2.4707032,7.3457031 C 2.3706056,7.5922851 2.2924806,7.7607422 2.2363282,7.8535156 2.126465,8.0292969 2.0009766,8.1831055 1.8593751,8.3125 1.7202149,8.4394531 1.5834958,8.5283176 1.4492189,8.5820312 l 0,0.1210938 0.53125,0 0,2.255859 c 0,0.241699 0.024903,0.421875 0.076172,0.539063 0.05127,0.114749 0.1308594,0.204105 0.2382813,0.267578 0.1074218,0.06103 0.2177734,0.0918 0.3300781,0.0918 0.1660157,0 0.3261719,-0.06006 0.4824219,-0.179688 0.15625,-0.12207 0.277832,-0.30371 0.3632812,-0.542968 l -0.1425781,0 c -0.041504,0.09765 -0.1000976,0.173336 -0.1757812,0.224609 -0.075684,0.04883 -0.1538087,0.07227 -0.234375,0.07227 -0.097656,0 -0.1787109,-0.0376 -0.2421876,-0.113282 -0.061035,-0.07568 -0.091797,-0.222167 -0.091797,-0.439453 l 0,-2.175781 0.7832031,0 0,-0.2558594 -0.7832031,0 0,-1.1015625 -0.1132813,0 z m 2.6074219,1.0019531 c -0.3881836,0 -0.6894531,0.087891 -0.9042969,0.2636719 -0.2148437,0.1757813 -0.3222656,0.3701172 -0.3222656,0.5800781 0,0.1098632 0.027832,0.196289 0.083984,0.2597657 0.058594,0.063477 0.1323242,0.09375 0.2226562,0.09375 0.092773,0 0.1684567,-0.028808 0.2246094,-0.089844 0.058594,-0.061035 0.087891,-0.149414 0.087891,-0.2617187 l -0.00781,-0.2109375 c 0,-0.1074219 0.045898,-0.2041016 0.1386719,-0.2871094 0.090332,-0.083008 0.2133789,-0.1230469 0.3671875,-0.1230469 0.2026367,0 0.355957,0.061035 0.4609375,0.1855469 0.1074219,0.1245117 0.1601563,0.3549805 0.1601563,0.6894531 l 0,0.1308594 C 5.0136745,9.7880857 4.6025417,9.9667969 4.3535182,10.113281 c -0.246582,0.146485 -0.4213867,0.302735 -0.5214844,0.46875 -0.073242,0.11963 -0.109375,0.262208 -0.109375,0.425781 0,0.25879 0.075684,0.466309 0.2246094,0.625 0.1513672,0.158692 0.3422852,0.238282 0.5742188,0.238282 0.1489257,0 0.290039,-0.03076 0.421875,-0.0918 0.087891,-0.0415 0.3022461,-0.194824 0.6464844,-0.460938 0.00244,0.200196 0.040527,0.342774 0.1113281,0.425782 0.070801,0.08301 0.1655274,0.123047 0.2851562,0.123047 0.2490235,0 0.5097657,-0.182617 0.7832031,-0.548829 l 0,-0.205078 c -0.1464845,0.146483 -0.2456056,0.235838 -0.296875,0.267578 -0.029297,0.01709 -0.0625,0.02539 -0.1015624,0.02539 -0.036621,0 -0.070313,-0.0127 -0.099609,-0.03711 -0.026855,-0.02441 -0.046386,-0.07178 -0.058594,-0.142579 -0.012207,-0.07324 -0.017578,-0.270019 -0.017578,-0.589843 l 0,-1.1386723 c 0,-0.324707 -0.022461,-0.5395508 -0.066406,-0.6445313 C 6.0605469,8.6923828 5.9545899,8.5737304 5.810547,8.4980469 5.6201172,8.3979492 5.3759766,8.3476562 5.0781251,8.3476562 Z m 2.7578125,0 -1.0117187,0.4101563 0.054687,0.1328125 c 0.095215,-0.036621 0.1777349,-0.054687 0.2460942,-0.054687 0.063476,0 0.1137693,0.015137 0.1503906,0.046875 0.039063,0.031738 0.066894,0.091797 0.083984,0.1796875 0.019531,0.087891 0.029297,0.3334961 0.029297,0.7363281 l 0,1.2441414 c 0,0.24414 -0.030762,0.410156 -0.091797,0.498047 -0.058594,0.08545 -0.1728515,0.128906 -0.34375,0.128906 l -0.074219,0 0,0.132812 1.6601563,0 0,-0.132812 c -0.1831053,0 -0.3061522,-0.01513 -0.3671875,-0.04687 -0.058593,-0.03418 -0.1044919,-0.0874 -0.1386719,-0.158203 -0.026855,-0.05371 -0.039063,-0.194825 -0.039063,-0.421875 l 0,-1.7675789 c 0.288086,-0.3173828 0.5766602,-0.4765625 0.8671875,-0.4765625 0.1879883,0 0.3203133,0.069824 0.3984375,0.2089844 0.080566,0.1367187 0.1210938,0.3569336 0.1210938,0.6621094 l 0,1.3730476 c 0,0.192871 -0.00391,0.309082 -0.013672,0.345703 -0.024414,0.09277 -0.069336,0.16211 -0.1328125,0.210937 -0.061035,0.04639 -0.1699219,0.07031 -0.3261719,0.07031 l -0.068359,0 0,0.132812 1.658203,0 0,-0.132812 c -0.161135,0 -0.272951,-0.0166 -0.333985,-0.05078 -0.05859,-0.03418 -0.100099,-0.08155 -0.126953,-0.142578 -0.03418,-0.07568 -0.052734,-0.221191 -0.052734,-0.433594 l 0,-1.4316404 C 9.9843751,9.3085937 9.9580076,9.0839843 9.904297,8.9375 9.826172,8.7275391 9.7216798,8.5786133 9.5898439,8.4882812 9.4580078,8.3955078 9.3002931,8.3476562 9.1171876,8.3476562 c -0.3564453,0 -0.7299805,0.2373048 -1.1230469,0.7109376 l -0.00195,-0.7109376 -0.15625,0 z m 6.5000004,0.140625 -0.978516,0.171875 0,0.1308594 c 0.07324,-0.00488 0.139159,-0.00586 0.195312,-0.00586 0.175782,0 0.308106,0.031738 0.398438,0.097656 0.09033,0.065918 0.16455,0.1791992 0.220703,0.3378906 0.01221,0.03418 0.09277,0.3481441 0.244141,0.9414058 -0.06104,0.136719 -0.190918,0.358399 -0.388672,0.666016 -0.197754,0.307617 -0.354004,0.506836 -0.46875,0.599609 -0.04638,0.03906 -0.08398,0.05859 -0.113282,0.05859 -0.03418,0 -0.08301,-0.02783 -0.146484,-0.08398 -0.08789,-0.07813 -0.169921,-0.117188 -0.248047,-0.117188 -0.07812,0 -0.143552,0.02637 -0.197265,0.08008 -0.05371,0.05371 -0.08203,0.122559 -0.08203,0.203125 0,0.09033 0.0293,0.161131 0.08789,0.214844 0.08057,0.0708 0.169922,0.105469 0.267578,0.105469 0.139161,0 0.282715,-0.05957 0.431641,-0.181641 0.229492,-0.19043 0.535156,-0.617676 0.916015,-1.279297 0.161136,0.725098 0.267093,1.135254 0.31836,1.230469 0.08057,0.153808 0.189453,0.230469 0.326172,0.230469 0.09277,0 0.207519,-0.05274 0.341797,-0.160156 0.236816,-0.19043 0.432128,-0.430664 0.585937,-0.71875 l -0.128906,-0.06445 c -0.09522,0.180664 -0.209473,0.327149 -0.34375,0.439454 -0.06836,0.05615 -0.128421,0.08398 -0.179688,0.08398 -0.03173,0 -0.06396,-0.01807 -0.0957,-0.05469 -0.03174,-0.03906 -0.0708,-0.154785 -0.117187,-0.347656 L 14.880859,9.8066406 c 0.209961,-0.3637695 0.391602,-0.609375 0.542969,-0.7363281 0.08057,-0.068359 0.150391,-0.1035156 0.208984,-0.1035156 0.03906,0 0.115723,0.019531 0.230469,0.058594 0.0586,0.021973 0.112796,0.033203 0.164063,0.033203 0.08789,-10e-8 0.166015,-0.030762 0.234375,-0.091797 0.03662,-0.03418 0.05469,-0.09668 0.05469,-0.1894531 0,-0.080566 -0.03028,-0.1489255 -0.09375,-0.2050782 -0.06104,-0.056153 -0.145019,-0.083984 -0.25,-0.083984 -0.0708,0 -0.134766,0.010742 -0.193359,0.035156 -0.09277,0.039063 -0.200196,0.1132813 -0.322266,0.2207031 -0.12207,0.1049805 -0.22705,0.2148438 -0.3125,0.3320313 L 14.822269,9.560547 C 14.72217,9.1870117 14.651369,8.9570312 14.607422,8.8691406 14.546387,8.7421875 14.455566,8.6152344 14.335938,8.4882812 Z m -8.7460941,1.3144532 0,1.2773436 c -0.3027344,0.244141 -0.5468751,0.367188 -0.7324219,0.367188 -0.1367188,0 -0.2563477,-0.05908 -0.3613281,-0.173828 -0.1049805,-0.117188 -0.1582032,-0.261719 -0.1582032,-0.4375 0,-0.13916 0.041992,-0.267578 0.125,-0.384766 0.083008,-0.117187 0.2211914,-0.230469 0.4140625,-0.337891 0.1074219,-0.06103 0.3442383,-0.164062 0.7128907,-0.3105466 z"
       id="path4769"
       inkscape:connector-curvature="0"
       class="button_text" />
  </g>
</svg>
